Urbanist-Thin.ufo
<glyph name="quotesingle" format="2">
  <advance width="300"/>
  <unicode hex="0027"/>
  <outline>
    <contour>
      <point x="120" y="878" type="line"/>
      <point x="180" y="878" type="line"/>
      <point x="180" y="1400" type="line"/>
      <point x="120" y="1400" type="line"/>
    </contour>
  </outline>
</glyph>
<glyph name="parenleft" format="2">
  <advance width="496"/>
  <unicode hex="0028"/>
  <outline>
    <contour>
      <point x="394" y="-112" type="curve"/>
      <point x="454" y="-112" type="line"/>
      <point x="268" y="86"/>
      <point x="192" y="328"/>
      <point x="180" y="644" type="curve"/>
      <point x="192" y="954"/>
      <point x="262" y="1188"/>
      <point x="454" y="1400" type="curve"/>
      <point x="394" y="1400" type="line"/>
      <point x="198" y="1226"/>
      <point x="120" y="932"/>
      <point x="120" y="644" type="curve" smooth="yes"/>
      <point x="120" y="364"/>
      <point x="196" y="66"/>
    </contour>
  </outline>
</glyph>
<glyph name="parenright" format="2">
  <advance width="496"/>
  <unicode hex="0029"/>
  <outline>
    <contour>
      <point x="42" y="-112" type="curve"/>
      <point x="102" y="-112" type="line"/>
      <point x="300" y="66"/>
      <point x="376" y="364"/>
      <point x="376" y="644" type="curve" smooth="yes"/>
      <point x="376" y="932"/>
      <point x="298" y="1226"/>
      <point x="102" y="1400" type="curve"/>
      <point x="42" y="1400" type="line"/>
      <point x="234" y="1188"/>
      <point x="304" y="954"/>
      <point x="316" y="644" type="curve"/>
      <point x="304" y="328"/>
      <point x="228" y="86"/>
    </contour>
  </outline>
</glyph>
<glyph name="asterisk" format="2">
  <advance width="720"/>
  <unicode hex="002A"/>
  <outline>
    <contour>
      <point x="216" y="866" type="line"/>
      <point x="360" y="1064" type="line"/>
      <point x="502" y="866" type="line"/>
      <point x="552" y="902" type="line"/>
      <point x="408" y="1098" type="line"/>
      <point x="640" y="1174" type="line"/>
      <point x="622" y="1230" type="line"/>
      <point x="390" y="1156" type="line"/>
      <point x="390" y="1400" type="line"/>
      <point x="330" y="1400" type="line"/>
      <point x="330" y="1156" type="line"/>
      <point x="98" y="1230" type="line"/>
      <point x="80" y="1174" type="line"/>
      <point x="310" y="1098" type="line"/>
      <point x="168" y="902" type="line"/>
    </contour>
  </outline>
</glyph>
<glyph name="plus" format="2">
  <advance width="1160"/>
  <unicode hex="002B"/>
  <outline>
    <contour>
      <point x="550" y="250" type="line"/>
      <point x="610" y="250" type="line"/>
      <point x="610" y="720" type="line"/>
      <point x="1080" y="720" type="line"/>
      <point x="1080" y="780" type="line"/>
      <point x="610" y="780" type="line"/>
      <point x="610" y="1250" type="line"/>
      <point x="550" y="1250" type="line"/>
      <point x="550" y="780" type="line"/>
      <point x="80" y="780" type="line"/>
      <point x="80" y="720" type="line"/>
      <point x="550" y="720" type="line"/>
    </contour>
  </outline>
</glyph>
<glyph name="comma" format="2">
  <advance width="362"/>
  <unicode hex="002C"/>
  <outline>
    <contour>
      <point x="120" y="-112" type="line"/>
      <point x="160" y="-112" type="line"/>
      <point x="242" y="226" type="line"/>
      <point x="182" y="226" type="line"/>
    </contour>
  </outline>
</glyph>
<glyph name="hyphen" format="2">
  <advance width="800"/>
  <unicode hex="002D"/>
  <outline>
    <contour>
      <point x="80" y="530" type="line"/>
      <point x="80" y="470" type="line"/>
      <point x="720" y="470" type="line"/>
      <point x="720" y="530" type="line"/>
    </contour>
  </outline>
</glyph>
<glyph name="slash" format="2">
  <advance width="704"/>
  <unicode hex="002F"/>
  <outline>
    <contour>
      <point x="584" y="1400" type="line"/>
      <point x="524" y="1400" type="line"/>
      <point x="120" y="-112" type="line"/>
      <point x="180" y="-112" type="line"/>
    </contour>
  </outline>
</glyph>
<glyph name="one" format="2">
  <advance width="390"/>
  <unicode hex="0031"/>
  <outline>
    <contour>
      <point x="210" y="0" type="line"/>
      <point x="270" y="0" type="line"/>
      <point x="270" y="1400" type="line"/>
      <point x="100" y="1400" type="line"/>
      <point x="80" y="1340" type="line"/>
      <point x="210" y="1340" type="line"/>
    </contour>
  </outline>
</glyph>
<glyph name="three" format="2">
  <advance width="952"/>
  <unicode hex="0033"/>
  <outline>
    <contour>
      <point x="476" y="-26" type="curve" smooth="yes"/>
      <point x="694" y="-26"/>
      <point x="892" y="152"/>
      <point x="892" y="370" type="curve" smooth="yes"/>
      <point x="892" y="546"/>
      <point x="796" y="678"/>
      <point x="614" y="738" type="curve"/>
      <point x="754" y="784"/>
      <point x="848" y="906"/>
      <point x="848" y="1066" type="curve" smooth="yes"/>
      <point x="848" y="1264"/>
      <point x="666" y="1426"/>
      <point x="468" y="1426" type="curve" smooth="yes"/>
      <point x="268" y="1426"/>
      <point x="86" y="1264"/>
      <point x="86" y="1066" type="curve"/>
      <point x="146" y="1066" type="line"/>
      <point x="146" y="1230"/>
      <point x="302" y="1366"/>
      <point x="468" y="1366" type="curve" smooth="yes"/>
      <point x="632" y="1366"/>
      <point x="788" y="1230"/>
      <point x="788" y="1066" type="curve" smooth="yes"/>
      <point x="788" y="870"/>
      <point x="636" y="766"/>
      <point x="412" y="766" type="curve"/>
      <point x="412" y="706" type="line"/>
      <point x="652" y="706"/>
      <point x="832" y="594"/>
      <point x="832" y="370" type="curve" smooth="yes"/>
      <point x="832" y="184"/>
      <point x="660" y="34"/>
      <point x="476" y="34" type="curve" smooth="yes"/>
      <point x="250" y="34"/>
      <point x="120" y="184"/>
      <point x="120" y="370" type="curve"/>
      <point x="60" y="370" type="line"/>
      <point x="60" y="152"/>
      <point x="218" y="-26"/>
    </contour>
  </outline>
</glyph>
<glyph name="four" format="2">
  <advance width="1050"/>
  <unicode hex="0034"/>
  <outline>
    <contour>
      <point x="700" y="0" type="line"/>
      <point x="760" y="0" type="line"/>
      <point x="760" y="434" type="line"/>
      <point x="930" y="434" type="line"/>
      <point x="930" y="494" type="line"/>
      <point x="760" y="494" type="line"/>
      <point x="760" y="1400" type="line"/>
      <point x="680" y="1400" type="line"/>
      <point x="90" y="498" type="line"/>
      <point x="90" y="434" type="line"/>
      <point x="700" y="434" type="line"/>
    </contour>
    <contour>
      <point x="166" y="498" type="line"/>
      <point x="696" y="1302" type="line"/>
      <point x="700" y="494" type="line"/>
    </contour>
  </outline>
</glyph>
<glyph name="six" format="2">
  <advance width="1150"/>
  <unicode hex="0036"/>
  <outline>
    <contour>
      <point x="554" y="-26" type="curve" smooth="yes"/>
      <point x="816" y="-26"/>
      <point x="1030" y="188"/>
      <point x="1030" y="450" type="curve" smooth="yes"/>
      <point x="1030" y="820"/>
      <point x="624" y="1044"/>
      <point x="312" y="858" type="curve"/>
      <point x="624" y="1400" type="line"/>
      <point x="554" y="1400" type="line"/>
      <point x="154" y="704" type="line"/>
      <point x="106" y="610"/>
      <point x="80" y="560"/>
      <point x="80" y="450" type="curve" smooth="yes"/>
      <point x="80" y="188"/>
      <point x="294" y="-26"/>
    </contour>
    <contour>
      <point x="554" y="34" type="curve" smooth="yes"/>
      <point x="332" y="34"/>
      <point x="140" y="216"/>
      <point x="140" y="452" type="curve" smooth="yes"/>
      <point x="140" y="672"/>
      <point x="320" y="864"/>
      <point x="556" y="864" type="curve" smooth="yes"/>
      <point x="784" y="864"/>
      <point x="970" y="680"/>
      <point x="970" y="452" type="curve" smooth="yes"/>
      <point x="970" y="232"/>
      <point x="796" y="34"/>
    </contour>
  </outline>
</glyph>
<glyph name="seven" format="2">
  <advance width="1126"/>
  <unicode hex="0037"/>
  <outline>
    <contour>
      <point x="224" y="0" type="line"/>
      <point x="292" y="0" type="line"/>
      <point x="1066" y="1340" type="line"/>
      <point x="1066" y="1400" type="line"/>
      <point x="100" y="1400" type="line"/>
      <point x="100" y="1340" type="line"/>
      <point x="996" y="1340" type="line"/>
    </contour>
  </outline>
</glyph>
<glyph name="colon" format="2">
  <advance width="330"/>
  <unicode hex="003A"/>
  <outline>
    <contour>
      <point x="164" y="910" type="curve" smooth="yes"/>
      <point x="190" y="910"/>
      <point x="210" y="930"/>
      <point x="210" y="956" type="curve" smooth="yes"/>
      <point x="210" y="980"/>
      <point x="190" y="1000"/>
      <point x="164" y="1000" type="curve" smooth="yes"/>
      <point x="140" y="1000"/>
      <point x="120" y="980"/>
      <point x="120" y="956" type="curve" smooth="yes"/>
      <point x="120" y="930"/>
      <point x="140" y="910"/>
    </contour>
    <contour>
      <point x="164" y="-26" type="curve" smooth="yes"/>
      <point x="190" y="-26"/>
      <point x="210" y="-6"/>
      <point x="210" y="20" type="curve" smooth="yes"/>
      <point x="210" y="44"/>
      <point x="190" y="64"/>
      <point x="164" y="64" type="curve" smooth="yes"/>
      <point x="140" y="64"/>
      <point x="120" y="44"/>
      <point x="120" y="20" type="curve" smooth="yes"/>
      <point x="120" y="-6"/>
      <point x="140" y="-26"/>
    </contour>
  </outline>
</glyph>
<glyph name="semicolon" format="2">
  <advance width="362"/>
  <unicode hex="003B"/>
  <outline>
    <contour>
      <point x="92" y="-112" type="line"/>
      <point x="132" y="-112" type="line"/>
      <point x="214" y="226" type="line"/>
      <point x="154" y="226" type="line"/>
    </contour>
    <contour>
      <point x="182" y="910" type="curve" smooth="yes"/>
      <point x="206" y="910"/>
      <point x="226" y="930"/>
      <point x="226" y="954" type="curve" smooth="yes"/>
      <point x="226" y="980"/>
      <point x="206" y="1000"/>
      <point x="182" y="1000" type="curve" smooth="yes"/>
      <point x="156" y="1000"/>
      <point x="136" y="980"/>
      <point x="136" y="954" type="curve" smooth="yes"/>
      <point x="136" y="930"/>
      <point x="156" y="910"/>
    </contour>
  </outline>
</glyph>
<glyph name="less" format="2">
  <advance width="1160"/>
  <unicode hex="003C"/>
  <outline>
    <contour>
      <point x="1080" y="418" type="line"/>
      <point x="1080" y="480" type="line"/>
      <point x="134" y="750" type="line"/>
      <point x="1080" y="1018" type="line"/>
      <point x="1080" y="1082" type="line"/>
      <point x="80" y="796" type="line"/>
      <point x="80" y="702" type="line"/>
    </contour>
  </outline>
</glyph>
<glyph name="equal" format="2">
  <advance width="1160"/>
  <unicode hex="003D"/>
  <outline>
    <contour>
      <point x="80" y="528" type="line"/>
      <point x="1080" y="528" type="line"/>
      <point x="1080" y="588" type="line"/>
      <point x="80" y="588" type="line"/>
    </contour>
    <contour>
      <point x="80" y="912" type="line"/>
      <point x="1080" y="912" type="line"/>
      <point x="1080" y="972" type="line"/>
      <point x="80" y="972" type="line"/>
    </contour>
  </outline>
</glyph>
<glyph name="greater" format="2">
  <advance width="1160"/>
  <unicode hex="003E"/>
  <outline>
    <contour>
      <point x="80" y="418" type="line"/>
      <point x="1080" y="702" type="line"/>
      <point x="1080" y="796" type="line"/>
      <point x="80" y="1082" type="line"/>
      <point x="80" y="1018" type="line"/>
      <point x="1026" y="750" type="line"/>
      <point x="80" y="480" type="line"/>
    </contour>
  </outline>
</glyph>
<glyph name="at" format="2">
  <advance width="1361"/>
  <unicode hex="0040"/>
  <outline>
    <contour>
      <point x="774" y="-6" type="curve"/>
      <point x="774" y="54" type="line"/>
      <point x="426" y="26"/>
      <point x="140" y="196"/>
      <point x="140" y="556" type="curve" smooth="yes"/>
      <point x="140" y="814"/>
      <point x="308" y="1098"/>
      <point x="676" y="1098" type="curve" smooth="yes"/>
      <point x="1094" y="1098"/>
      <point x="1266" y="736"/>
      <point x="1210" y="372" type="curve" smooth="yes"/>
      <point x="1192" y="258"/>
      <point x="1178" y="246"/>
      <point x="1134" y="246" type="curve" smooth="yes"/>
      <point x="1062" y="246"/>
      <point x="1014" y="284"/>
      <point x="1014" y="372" type="curve" smooth="yes"/>
      <point x="1014" y="848" type="line"/>
      <point x="954" y="888" type="line"/>
      <point x="954" y="784" type="line"/>
      <point x="900" y="882"/>
      <point x="806" y="946"/>
      <point x="680" y="946" type="curve" smooth="yes"/>
      <point x="476" y="946"/>
      <point x="312" y="780"/>
      <point x="312" y="578" type="curve" smooth="yes"/>
      <point x="312" y="374"/>
      <point x="476" y="210"/>
      <point x="680" y="210" type="curve" smooth="yes"/>
      <point x="806" y="210"/>
      <point x="900" y="274"/>
      <point x="954" y="370" type="curve"/>
      <point x="954" y="258"/>
      <point x="1022" y="186"/>
      <point x="1134" y="186" type="curve" smooth="yes"/>
      <point x="1240" y="186"/>
      <point x="1252" y="260"/>
      <point x="1270" y="372" type="curve" smooth="yes"/>
      <point x="1330" y="764"/>
      <point x="1138" y="1158"/>
      <point x="676" y="1158" type="curve" smooth="yes"/>
      <point x="280" y="1158"/>
      <point x="80" y="850"/>
      <point x="80" y="556" type="curve" smooth="yes"/>
      <point x="80" y="162"/>
      <point x="378" y="-42"/>
    </contour>
    <contour>
      <point x="680" y="270" type="curve" smooth="yes"/>
      <point x="508" y="270"/>
      <point x="372" y="408"/>
      <point x="372" y="578" type="curve" smooth="yes"/>
      <point x="372" y="748"/>
      <point x="510" y="886"/>
      <point x="680" y="886" type="curve" smooth="yes"/>
      <point x="848" y="886"/>
      <point x="944" y="748"/>
      <point x="944" y="578" type="curve" smooth="yes"/>
      <point x="944" y="412"/>
      <point x="850" y="270"/>
    </contour>
  </outline>
</glyph>
<glyph name="A" format="2">
  <advance width="1272"/>
  <unicode hex="0041"/>
  <outline>
    <contour>
      <point x="590" y="1400" type="line"/>
      <point x="80" y="0" type="line"/>
      <point x="144" y="0" type="line"/>
      <point x="268" y="340" type="line"/>
      <point x="1004" y="340" type="line"/>
      <point x="1128" y="0" type="line"/>
      <point x="1192" y="0" type="line"/>
      <point x="682" y="1400" type="line"/>
    </contour>
    <contour>
      <point x="290" y="400" type="line"/>
      <point x="636" y="1350" type="line"/>
      <point x="982" y="400" type="line"/>
    </contour>
  </outline>
</glyph>
<glyph name="B" format="2">
  <advance width="1050"/>
  <unicode hex="0042"/>
  <outline>
    <contour>
      <point x="120" y="0" type="line"/>
      <point x="630" y="0" type="line" smooth="yes"/>
      <point x="828" y="0"/>
      <point x="990" y="162"/>
      <point x="990" y="362" type="curve" smooth="yes"/>
      <point x="990" y="526"/>
      <point x="882" y="664"/>
      <point x="732" y="708" type="curve"/>
      <point x="838" y="770"/>
      <point x="912" y="892"/>
      <point x="912" y="1030" type="curve" smooth="yes"/>
      <point x="912" y="1232"/>
      <point x="756" y="1398"/>
      <point x="564" y="1398" type="curve" smooth="yes"/>
      <point x="120" y="1398" type="line"/>
    </contour>
    <contour>
      <point x="180" y="60" type="line"/>
      <point x="180" y="662" type="line"/>
      <point x="630" y="662" type="line" smooth="yes"/>
      <point x="796" y="662"/>
      <point x="930" y="528"/>
      <point x="930" y="362" type="curve" smooth="yes"/>
      <point x="930" y="196"/>
      <point x="796" y="60"/>
      <point x="630" y="60" type="curve" smooth="yes"/>
    </contour>
    <contour>
      <point x="180" y="722" type="line"/>
      <point x="180" y="1338" type="line"/>
      <point x="564" y="1338" type="line" smooth="yes"/>
      <point x="722" y="1338"/>
      <point x="852" y="1200"/>
      <point x="852" y="1030" type="curve" smooth="yes"/>
      <point x="852" y="860"/>
      <point x="722" y="722"/>
      <point x="564" y="722" type="curve" smooth="yes"/>
    </contour>
  </outline>
</glyph>
<glyph name="D" format="2">
  <advance width="1262"/>
  <unicode hex="0044"/>
  <outline>
    <contour>
      <point x="80" y="0" type="line"/>
      <point x="542" y="0" type="line" smooth="yes"/>
      <point x="930" y="0"/>
      <point x="1242" y="314"/>
      <point x="1242" y="700" type="curve" smooth="yes"/>
      <point x="1242" y="1086"/>
      <point x="930" y="1400"/>
      <point x="542" y="1400" type="curve" smooth="yes"/>
      <point x="80" y="1400" type="line"/>
    </contour>
    <contour>
      <point x="140" y="60" type="line"/>
      <point x="140" y="1340" type="line"/>
      <point x="542" y="1340" type="line" smooth="yes"/>
      <point x="896" y="1340"/>
      <point x="1182" y="1054"/>
      <point x="1182" y="700" type="curve" smooth="yes"/>
      <point x="1182" y="346"/>
      <point x="898" y="60"/>
      <point x="542" y="60" type="curve" smooth="yes"/>
    </contour>
  </outline>
</glyph>
<glyph name="E" format="2">
  <advance width="1032"/>
  <unicode hex="0045"/>
  <outline>
    <contour>
      <point x="100" y="0" type="line"/>
      <point x="932" y="0" type="line"/>
      <point x="932" y="60" type="line"/>
      <point x="160" y="60" type="line"/>
      <point x="160" y="670" type="line"/>
      <point x="836" y="670" type="line"/>
      <point x="836" y="730" type="line"/>
      <point x="160" y="730" type="line"/>
      <point x="160" y="1340" type="line"/>
      <point x="932" y="1340" type="line"/>
      <point x="932" y="1400" type="line"/>
      <point x="100" y="1400" type="line"/>
    </contour>
  </outline>
</glyph>
<glyph name="F" format="2">
  <advance width="952"/>
  <unicode hex="0046"/>
  <outline>
    <contour>
      <point x="72" y="0" type="line"/>
      <point x="132" y="0" type="line"/>
      <point x="132" y="670" type="line"/>
      <point x="788" y="670" type="line"/>
      <point x="788" y="730" type="line"/>
      <point x="132" y="730" type="line"/>
      <point x="132" y="1340" type="line"/>
      <point x="884" y="1340" type="line"/>
      <point x="884" y="1400" type="line"/>
      <point x="72" y="1400" type="line"/>
    </contour>
  </outline>
</glyph>
<glyph name="G" format="2">
  <advance width="1496"/>
  <unicode hex="0047"/>
  <outline>
    <contour>
      <point x="750" y="-26" type="curve" smooth="yes"/>
      <point x="1110" y="-26"/>
      <point x="1412" y="272"/>
      <point x="1436" y="642" type="curve"/>
      <point x="896" y="642" type="line"/>
      <point x="896" y="582" type="line"/>
      <point x="1368" y="582" type="line"/>
      <point x="1322" y="282"/>
      <point x="1064" y="34"/>
      <point x="750" y="34" type="curve" smooth="yes"/>
      <point x="402" y="34"/>
      <point x="120" y="336"/>
      <point x="120" y="700" type="curve" smooth="yes"/>
      <point x="120" y="1058"/>
      <point x="398" y="1366"/>
      <point x="750" y="1366" type="curve" smooth="yes"/>
      <point x="940" y="1366"/>
      <point x="1126" y="1272"/>
      <point x="1246" y="1108" type="curve"/>
      <point x="1300" y="1138" type="line"/>
      <point x="1174" y="1312"/>
      <point x="974" y="1426"/>
      <point x="750" y="1426" type="curve" smooth="yes"/>
      <point x="368" y="1426"/>
      <point x="60" y="1100"/>
      <point x="60" y="700" type="curve" smooth="yes"/>
      <point x="60" y="300"/>
      <point x="368" y="-26"/>
    </contour>
  </outline>
</glyph>
<glyph name="H" format="2">
  <advance width="1134"/>
  <unicode hex="0048"/>
  <outline>
    <contour>
      <point x="994" y="1400" type="line"/>
      <point x="994" y="746" type="line"/>
      <point x="140" y="746" type="line"/>
      <point x="140" y="1400" type="line"/>
      <point x="80" y="1400" type="line"/>
      <point x="80" y="0" type="line"/>
      <point x="140" y="0" type="line"/>
      <point x="140" y="686" type="line"/>
      <point x="994" y="686" type="line"/>
      <point x="994" y="0" type="line"/>
      <point x="1054" y="0" type="line"/>
      <point x="1054" y="1400" type="line"/>
    </contour>
  </outline>
</glyph>
<glyph name="I" format="2">
  <advance width="300"/>
  <unicode hex="0049"/>
  <outline>
    <contour>
      <point x="120" y="0" type="line"/>
      <point x="180" y="0" type="line"/>
      <point x="180" y="1400" type="line"/>
      <point x="120" y="1400" type="line"/>
    </contour>
  </outline>
</glyph>
<glyph name="K" format="2">
  <advance width="914"/>
  <unicode hex="004B"/>
  <outline>
    <contour>
      <point x="884" y="0" type="line"/>
      <point x="338" y="738" type="line"/>
      <point x="894" y="1400" type="line"/>
      <point x="816" y="1400" type="line"/>
      <point x="140" y="594" type="line"/>
      <point x="140" y="1400" type="line"/>
      <point x="80" y="1400" type="line"/>
      <point x="80" y="0" type="line"/>
      <point x="140" y="0" type="line"/>
      <point x="140" y="500" type="line"/>
      <point x="298" y="690" type="line"/>
      <point x="808" y="0" type="line"/>
    </contour>
  </outline>
</glyph>
<glyph name="L" format="2">
  <advance width="920"/>
  <unicode hex="004C"/>
  <outline>
    <contour>
      <point x="900" y="0" type="line"/>
      <point x="80" y="0" type="line"/>
      <point x="80" y="1400" type="line"/>
      <point x="140" y="1400" type="line"/>
      <point x="140" y="60" type="line"/>
      <point x="900" y="60" type="line"/>
    </contour>
  </outline>
</glyph>
<glyph name="M" format="2">
  <advance width="1612"/>
  <unicode hex="004D"/>
  <outline>
    <contour>
      <point x="80" y="0" type="line"/>
      <point x="140" y="0" type="line"/>
      <point x="378" y="1228" type="line"/>
      <point x="790" y="138" type="line"/>
      <point x="820" y="138" type="line"/>
      <point x="1232" y="1228" type="line"/>
      <point x="1470" y="0" type="line"/>
      <point x="1532" y="0" type="line"/>
      <point x="1260" y="1400" type="line"/>
      <point x="1234" y="1400" type="line"/>
      <point x="806" y="268" type="line"/>
      <point x="376" y="1400" type="line"/>
      <point x="350" y="1400" type="line"/>
    </contour>
  </outline>
</glyph>
<glyph name="N" format="2">
  <advance width="1218"/>
  <unicode hex="004E"/>
  <outline>
    <contour>
      <point x="120" y="0" type="line"/>
      <point x="180" y="0" type="line"/>
      <point x="180" y="1292" type="line"/>
      <point x="1034" y="0" type="line"/>
      <point x="1098" y="0" type="line"/>
      <point x="1098" y="1400" type="line"/>
      <point x="1038" y="1400" type="line"/>
      <point x="1038" y="108" type="line"/>
      <point x="186" y="1400" type="line"/>
      <point x="120" y="1400" type="line"/>
    </contour>
  </outline>
</glyph>
<glyph name="Q" format="2">
  <advance width="1538"/>
  <unicode hex="0051"/>
  <outline>
    <contour>
      <point x="1392" y="-10" type="line"/>
      <point x="1434" y="32" type="line"/>
      <point x="1256" y="208" type="line"/>
      <point x="1370" y="338"/>
      <point x="1438" y="510"/>
      <point x="1438" y="700" type="curve" smooth="yes"/>
      <point x="1438" y="1100"/>
      <point x="1130" y="1426"/>
      <point x="750" y="1426" type="curve" smooth="yes"/>
      <point x="368" y="1426"/>
      <point x="60" y="1100"/>
      <point x="60" y="700" type="curve" smooth="yes"/>
      <point x="60" y="300"/>
      <point x="368" y="-26"/>
      <point x="750" y="-26" type="curve" smooth="yes"/>
      <point x="928" y="-26"/>
      <point x="1092" y="46"/>
      <point x="1216" y="166" type="curve"/>
    </contour>
    <contour>
      <point x="750" y="34" type="curve" smooth="yes"/>
      <point x="404" y="34"/>
      <point x="120" y="334"/>
      <point x="120" y="700" type="curve" smooth="yes"/>
      <point x="120" y="1058"/>
      <point x="398" y="1366"/>
      <point x="750" y="1366" type="curve" smooth="yes"/>
      <point x="1094" y="1366"/>
      <point x="1378" y="1066"/>
      <point x="1378" y="700" type="curve" smooth="yes"/>
      <point x="1378" y="536"/>
      <point x="1320" y="376"/>
      <point x="1214" y="252" type="curve"/>
      <point x="946" y="520" type="line"/>
      <point x="904" y="476" type="line"/>
      <point x="1172" y="208" type="line"/>
      <point x="1062" y="98"/>
      <point x="904" y="34"/>
    </contour>
  </outline>
</glyph>
<glyph name="R" format="2">
  <advance width="1000"/>
  <unicode hex="0052"/>
  <outline>
    <contour>
      <point x="120" y="0" type="line"/>
      <point x="180" y="0" type="line"/>
      <point x="180" y="600" type="line"/>
      <point x="512" y="600" type="line"/>
      <point x="860" y="0" type="line"/>
      <point x="930" y="0" type="line"/>
      <point x="582" y="602" type="line"/>
      <point x="780" y="618"/>
      <point x="940" y="782"/>
      <point x="940" y="1000" type="curve" smooth="yes"/>
      <point x="940" y="1228"/>
      <point x="768" y="1400"/>
      <point x="548" y="1400" type="curve" smooth="yes"/>
      <point x="120" y="1400" type="line"/>
    </contour>
    <contour>
      <point x="180" y="660" type="line"/>
      <point x="180" y="1340" type="line"/>
      <point x="548" y="1340" type="line" smooth="yes"/>
      <point x="730" y="1340"/>
      <point x="880" y="1196"/>
      <point x="880" y="1000" type="curve" smooth="yes"/>
      <point x="880" y="804"/>
      <point x="730" y="660"/>
      <point x="548" y="660" type="curve" smooth="yes"/>
    </contour>
  </outline>
</glyph>
<glyph name="T" format="2">
  <advance width="1218"/>
  <unicode hex="0054"/>
  <outline>
    <contour>
      <point x="1158" y="1400" type="line"/>
      <point x="60" y="1400" type="line"/>
      <point x="60" y="1340" type="line"/>
      <point x="578" y="1340" type="line"/>
      <point x="578" y="0" type="line"/>
      <point x="638" y="0" type="line"/>
      <point x="638" y="1340" type="line"/>
      <point x="1158" y="1340" type="line"/>
    </contour>
  </outline>
</glyph>
<glyph name="U" format="2">
  <advance width="1220"/>
  <unicode hex="0055"/>
  <outline>
    <contour>
      <point x="610" y="-26" type="curve" smooth="yes"/>
      <point x="946" y="-26"/>
      <point x="1140" y="246"/>
      <point x="1140" y="584" type="curve" smooth="yes"/>
      <point x="1140" y="1400" type="line"/>
      <point x="1080" y="1400" type="line"/>
      <point x="1080" y="584" type="line" smooth="yes"/>
      <point x="1080" y="288"/>
      <point x="918" y="34"/>
      <point x="610" y="34" type="curve" smooth="yes"/>
      <point x="306" y="34"/>
      <point x="140" y="284"/>
      <point x="140" y="584" type="curve" smooth="yes"/>
      <point x="140" y="1400" type="line"/>
      <point x="80" y="1400" type="line"/>
      <point x="80" y="584" type="line" smooth="yes"/>
      <point x="80" y="246"/>
      <point x="274" y="-26"/>
    </contour>
  </outline>
</glyph>
<glyph name="V" format="2">
  <advance width="1198"/>
  <unicode hex="0056"/>
  <outline>
    <contour>
      <point x="568" y="0" type="line"/>
      <point x="628" y="0" type="line"/>
      <point x="1138" y="1400" type="line"/>
      <point x="1074" y="1400" type="line"/>
      <point x="598" y="92" type="line"/>
      <point x="124" y="1400" type="line"/>
      <point x="60" y="1400" type="line"/>
    </contour>
  </outline>
</glyph>
<glyph name="W" format="2">
  <advance width="1600"/>
  <unicode hex="0057"/>
  <outline>
    <contour>
      <point x="402" y="0" type="line"/>
      <point x="480" y="0" type="line"/>
      <point x="800" y="1250" type="line"/>
      <point x="1120" y="0" type="line"/>
      <point x="1200" y="0" type="line"/>
      <point x="1556" y="1400" type="line"/>
      <point x="1494" y="1400" type="line"/>
      <point x="1160" y="86" type="line"/>
      <point x="824" y="1400" type="line"/>
      <point x="776" y="1400" type="line"/>
      <point x="442" y="86" type="line"/>
      <point x="106" y="1400" type="line"/>
      <point x="44" y="1400" type="line"/>
    </contour>
  </outline>
</glyph>
<glyph name="Z" format="2">
  <advance width="1212"/>
  <unicode hex="005A"/>
  <outline>
    <contour>
      <point x="40" y="0" type="line"/>
      <point x="1172" y="0" type="line"/>
      <point x="1172" y="60" type="line"/>
      <point x="118" y="60" type="line"/>
      <point x="1172" y="1340" type="line"/>
      <point x="1172" y="1400" type="line"/>
      <point x="40" y="1400" type="line"/>
      <point x="40" y="1340" type="line"/>
      <point x="1094" y="1340" type="line"/>
      <point x="40" y="60" type="line"/>
    </contour>
  </outline>
</glyph>
<glyph name="bracketleft" format="2">
  <advance width="420"/>
  <unicode hex="005B"/>
  <outline>
    <contour>
      <point x="340" y="-52" type="line"/>
      <point x="160" y="-52" type="line"/>
      <point x="160" y="1340" type="line"/>
      <point x="340" y="1340" type="line"/>
      <point x="340" y="1400" type="line"/>
      <point x="100" y="1400" type="line"/>
      <point x="100" y="-112" type="line"/>
      <point x="340" y="-112" type="line"/>
    </contour>
  </outline>
</glyph>
<glyph name="backslash" format="2">
  <advance width="646"/>
  <unicode hex="005C"/>
  <outline>
    <contour>
      <point x="526" y="-112" type="line"/>
      <point x="586" y="-112" type="line"/>
      <point x="180" y="1400" type="line"/>
      <point x="120" y="1400" type="line"/>
    </contour>
  </outline>
</glyph>
<glyph name="bracketright" format="2">
  <advance width="420"/>
  <unicode hex="005D"/>
  <outline>
    <contour>
      <point x="80" y="-112" type="line"/>
      <point x="320" y="-112" type="line"/>
      <point x="320" y="1400" type="line"/>
      <point x="80" y="1400" type="line"/>
      <point x="80" y="1340" type="line"/>
      <point x="260" y="1340" type="line"/>
      <point x="260" y="-52" type="line"/>
      <point x="80" y="-52" type="line"/>
    </contour>
  </outline>
</glyph>
<glyph name="grave" format="2">
  <advance width="940"/>
  <unicode hex="0060"/>
  <outline>
    <contour>
      <point x="320" y="1426" type="line"/>
      <point x="440" y="1138" type="line"/>
      <point x="460" y="1138" type="line"/>
      <point x="380" y="1426" type="line"/>
    </contour>
  </outline>
</glyph>
<glyph name="d" format="2">
  <advance width="1194"/>
  <unicode hex="0064"/>
  <outline>
    <contour>
      <point x="1014" y="1500" type="line"/>
      <point x="1014" y="768" type="line"/>
      <point x="942" y="924"/>
      <point x="800" y="1028"/>
      <point x="606" y="1028" type="curve"/>
      <point x="316" y="1028"/>
      <point x="80" y="792"/>
      <point x="80" y="500" type="curve"/>
      <point x="80" y="210"/>
      <point x="316" y="-26"/>
      <point x="606" y="-26" type="curve"/>
      <point x="800" y="-26"/>
      <point x="942" y="78"/>
      <point x="1014" y="234" type="curve"/>
      <point x="1014" y="0" type="line"/>
      <point x="1074" y="0" type="line"/>
      <point x="1074" y="1500" type="line"/>
    </contour>
    <contour>
      <point x="606" y="34" type="curve"/>
      <point x="356" y="34"/>
      <point x="140" y="238"/>
      <point x="140" y="500" type="curve"/>
      <point x="140" y="758"/>
      <point x="350" y="968"/>
      <point x="606" y="968" type="curve"/>
      <point x="860" y="968"/>
      <point x="1010" y="762"/>
      <point x="1010" y="500" type="curve"/>
      <point x="1010" y="244"/>
      <point x="864" y="34"/>
    </contour>
  </outline>
</glyph>
<glyph name="e" format="2">
  <advance width="1118"/>
  <unicode hex="0065"/>
  <outline>
    <contour>
      <point x="560" y="-26" type="curve" smooth="yes"/>
      <point x="760" y="-26"/>
      <point x="932" y="98"/>
      <point x="1012" y="276" type="curve"/>
      <point x="952" y="290" type="line"/>
      <point x="872" y="130"/>
      <point x="730" y="34"/>
      <point x="560" y="34" type="curve" smooth="yes"/>
      <point x="330" y="34"/>
      <point x="140" y="220"/>
      <point x="120" y="470" type="curve"/>
      <point x="1058" y="470" type="line"/>
      <point x="1052" y="804"/>
      <point x="846" y="1028"/>
      <point x="560" y="1028" type="curve" smooth="yes"/>
      <point x="284" y="1028"/>
      <point x="60" y="792"/>
      <point x="60" y="500" type="curve" smooth="yes"/>
      <point x="60" y="210"/>
      <point x="284" y="-26"/>
    </contour>
    <contour>
      <point x="120" y="530" type="line"/>
      <point x="136" y="772"/>
      <point x="322" y="968"/>
      <point x="560" y="968" type="curve" smooth="yes"/>
      <point x="796" y="968"/>
      <point x="990" y="764"/>
      <point x="998" y="530" type="curve"/>
    </contour>
  </outline>
</glyph>
<glyph name="f" format="2">
  <advance width="660"/>
  <unicode hex="0066"/>
  <outline>
    <contour>
      <point x="258" y="1300" type="line"/>
      <point x="258" y="1390"/>
      <point x="332" y="1464"/>
      <point x="422" y="1464" type="curve"/>
      <point x="466" y="1464"/>
      <point x="508" y="1446"/>
      <point x="538" y="1416" type="curve"/>
      <point x="580" y="1458" type="line"/>
      <point x="538" y="1500"/>
      <point x="482" y="1524"/>
      <point x="422" y="1524" type="curve"/>
      <point x="298" y="1524"/>
      <point x="198" y="1424"/>
      <point x="198" y="1300" type="curve"/>
      <point x="198" y="1000" type="line"/>
      <point x="40" y="1000" type="line"/>
      <point x="40" y="940" type="line"/>
      <point x="198" y="940" type="line"/>
      <point x="198" y="0" type="line"/>
      <point x="258" y="0" type="line"/>
      <point x="258" y="940" type="line"/>
      <point x="580" y="940" type="line"/>
      <point x="580" y="1000" type="line"/>
      <point x="258" y="1000" type="line"/>
    </contour>
  </outline>
</glyph>
<glyph name="g" format="2">
  <advance width="1156"/>
  <unicode hex="0067"/>
  <outline>
    <contour>
      <point x="976" y="1000" type="line"/>
      <point x="976" y="770" type="line"/>
      <point x="902" y="924"/>
      <point x="762" y="1028"/>
      <point x="580" y="1028" type="curve"/>
      <point x="304" y="1028"/>
      <point x="80" y="792"/>
      <point x="80" y="500" type="curve"/>
      <point x="80" y="210"/>
      <point x="304" y="-26"/>
      <point x="580" y="-26" type="curve"/>
      <point x="762" y="-26"/>
      <point x="902" y="78"/>
      <point x="976" y="232" type="curve"/>
      <point x="976" y="-50" type="line"/>
      <point x="976" y="-250"/>
      <point x="774" y="-440"/>
      <point x="568" y="-440" type="curve"/>
      <point x="390" y="-440"/>
      <point x="200" y="-290"/>
      <point x="166" y="-110" type="curve"/>
      <point x="110" y="-136" type="line"/>
      <point x="156" y="-330"/>
      <point x="360" y="-500"/>
      <point x="568" y="-500" type="curve"/>
      <point x="804" y="-500"/>
      <point x="1036" y="-282"/>
      <point x="1036" y="-50" type="curve"/>
      <point x="1036" y="1000" type="line"/>
    </contour>
    <contour>
      <point x="580" y="34" type="curve"/>
      <point x="340" y="34"/>
      <point x="140" y="240"/>
      <point x="140" y="500" type="curve"/>
      <point x="140" y="758"/>
      <point x="334" y="968"/>
      <point x="580" y="968" type="curve"/>
      <point x="824" y="968"/>
      <point x="974" y="754"/>
      <point x="974" y="500" type="curve"/>
      <point x="974" y="252"/>
      <point x="828" y="34"/>
    </contour>
  </outline>
</glyph>
<glyph name="j" format="2">
  <advance width="582"/>
  <unicode hex="006A"/>
  <outline>
    <contour>
      <point x="60" y="-500" type="curve" smooth="yes"/>
      <point x="272" y="-500"/>
      <point x="426" y="-344"/>
      <point x="426" y="-148" type="curve"/>
      <point x="426" y="1000" type="line"/>
      <point x="366" y="1000" type="line"/>
      <point x="366" y="-148" type="line"/>
      <point x="366" y="-314"/>
      <point x="236" y="-440"/>
      <point x="60" y="-440" type="curve"/>
      <point x="60" y="-440"/>
      <point x="60" y="-500"/>
    </contour>
    <contour>
      <point x="396" y="1200" type="curve"/>
      <point x="420" y="1200"/>
      <point x="442" y="1220"/>
      <point x="442" y="1244" type="curve"/>
      <point x="442" y="1268"/>
      <point x="420" y="1290"/>
      <point x="396" y="1290" type="curve"/>
      <point x="372" y="1290"/>
      <point x="352" y="1268"/>
      <point x="352" y="1244" type="curve"/>
      <point x="352" y="1220"/>
      <point x="372" y="1200"/>
    </contour>
  </outline>
</glyph>
<glyph name="k" format="2">
  <advance width="894"/>
  <unicode hex="006B"/>
  <outline>
    <contour>
      <point x="814" y="0" type="line"/>
      <point x="466" y="602" type="line"/>
      <point x="802" y="1000" type="line"/>
      <point x="724" y="1000" type="line"/>
      <point x="180" y="352" type="line"/>
      <point x="180" y="1500" type="line"/>
      <point x="120" y="1500" type="line"/>
      <point x="120" y="0" type="line"/>
      <point x="180" y="0" type="line"/>
      <point x="180" y="258" type="line"/>
      <point x="426" y="552" type="line"/>
      <point x="746" y="0" type="line"/>
    </contour>
  </outline>
</glyph>
<glyph name="l" format="2">
  <advance width="260"/>
  <unicode hex="006C"/>
  <outline>
    <contour>
      <point x="100" y="2" type="line"/>
      <point x="160" y="2" type="line"/>
      <point x="160" y="1500" type="line"/>
      <point x="100" y="1500" type="line"/>
    </contour>
  </outline>
</glyph>
<glyph name="m" format="2">
  <advance width="1652"/>
  <unicode hex="006D"/>
  <outline>
    <contour>
      <point x="80" y="0" type="line"/>
      <point x="140" y="0" type="line"/>
      <point x="140" y="530" type="line" smooth="yes"/>
      <point x="140" y="760"/>
      <point x="268" y="968"/>
      <point x="458" y="968" type="curve" smooth="yes"/>
      <point x="666" y="968"/>
      <point x="796" y="780"/>
      <point x="796" y="550" type="curve" smooth="yes"/>
      <point x="796" y="0" type="line"/>
      <point x="856" y="0" type="line"/>
      <point x="856" y="550" type="line" smooth="yes"/>
      <point x="856" y="780"/>
      <point x="986" y="968"/>
      <point x="1194" y="968" type="curve" smooth="yes"/>
      <point x="1402" y="968"/>
      <point x="1512" y="780"/>
      <point x="1512" y="550" type="curve" smooth="yes"/>
      <point x="1512" y="0" type="line"/>
      <point x="1572" y="0" type="line"/>
      <point x="1572" y="550" type="line" smooth="yes"/>
      <point x="1572" y="806"/>
      <point x="1442" y="1028"/>
      <point x="1194" y="1028" type="curve" smooth="yes"/>
      <point x="1010" y="1028"/>
      <point x="888" y="920"/>
      <point x="826" y="744" type="curve"/>
      <point x="764" y="916"/>
      <point x="648" y="1028"/>
      <point x="458" y="1028" type="curve" smooth="yes"/>
      <point x="298" y="1028"/>
      <point x="216" y="934"/>
      <point x="140" y="792" type="curve"/>
      <point x="140" y="1000" type="line"/>
      <point x="80" y="1000" type="line"/>
    </contour>
  </outline>
</glyph>
<glyph name="n" format="2">
  <advance width="1038"/>
  <unicode hex="006E"/>
  <outline>
    <contour>
      <point x="958" y="554" type="line"/>
      <point x="954" y="806"/>
      <point x="778" y="1028"/>
      <point x="538" y="1028" type="curve"/>
      <point x="390" y="1028"/>
      <point x="262" y="942"/>
      <point x="180" y="796" type="curve"/>
      <point x="180" y="1000" type="line"/>
      <point x="120" y="1000" type="line"/>
      <point x="120" y="0" type="line"/>
      <point x="180" y="0" type="line"/>
      <point x="180" y="550" type="line"/>
      <point x="180" y="780"/>
      <point x="342" y="968"/>
      <point x="538" y="968" type="curve"/>
      <point x="736" y="968"/>
      <point x="898" y="780"/>
      <point x="898" y="550" type="curve"/>
      <point x="898" y="0" type="line"/>
      <point x="958" y="0" type="line"/>
    </contour>
  </outline>
</glyph>
<glyph name="r" format="2">
  <advance width="732"/>
  <unicode hex="0072"/>
  <outline>
    <contour>
      <point x="642" y="950" type="curve"/>
      <point x="652" y="1010" type="line"/>
      <point x="618" y="1022"/>
      <point x="580" y="1028"/>
      <point x="540" y="1028" type="curve"/>
      <point x="392" y="1028"/>
      <point x="262" y="942"/>
      <point x="180" y="796" type="curve"/>
      <point x="180" y="1000" type="line"/>
      <point x="120" y="1000" type="line"/>
      <point x="120" y="0" type="line"/>
      <point x="180" y="0" type="line"/>
      <point x="180" y="550" type="line"/>
      <point x="180" y="780"/>
      <point x="342" y="968"/>
      <point x="540" y="968" type="curve"/>
      <point x="576" y="968"/>
      <point x="610" y="962"/>
    </contour>
  </outline>
</glyph>
<glyph name="s" format="2">
  <advance width="932"/>
  <unicode hex="0073"/>
  <outline>
    <contour>
      <point x="480" y="-20" type="curve"/>
      <point x="666" y="-20"/>
      <point x="838" y="88"/>
      <point x="838" y="258" type="curve"/>
      <point x="838" y="424"/>
      <point x="668" y="478"/>
      <point x="480" y="538" type="curve" smooth="yes"/>
      <point x="290" y="598"/>
      <point x="180" y="618"/>
      <point x="180" y="756" type="curve"/>
      <point x="180" y="890"/>
      <point x="322" y="974"/>
      <point x="480" y="974" type="curve"/>
      <point x="606" y="974"/>
      <point x="748" y="912"/>
      <point x="790" y="806" type="curve"/>
      <point x="842" y="836" type="line"/>
      <point x="794" y="952"/>
      <point x="646" y="1034"/>
      <point x="480" y="1034" type="curve"/>
      <point x="292" y="1034"/>
      <point x="120" y="926"/>
      <point x="120" y="756" type="curve"/>
      <point x="120" y="590"/>
      <point x="250" y="550"/>
      <point x="480" y="478" type="curve" smooth="yes"/>
      <point x="628" y="432"/>
      <point x="778" y="394"/>
      <point x="778" y="258" type="curve"/>
      <point x="778" y="128"/>
      <point x="636" y="40"/>
      <point x="480" y="40" type="curve"/>
      <point x="354" y="40"/>
      <point x="184" y="112"/>
      <point x="146" y="220" type="curve"/>
      <point x="90" y="196" type="line"/>
      <point x="132" y="76"/>
      <point x="308" y="-20"/>
    </contour>
  </outline>
</glyph>
<glyph name="t" format="2">
  <advance width="740"/>
  <unicode hex="0074"/>
  <outline>
    <contour>
      <point x="630" y="940" type="line"/>
      <point x="630" y="1000" type="line"/>
      <point x="356" y="1000" type="line"/>
      <point x="356" y="1314" type="line"/>
      <point x="296" y="1314" type="line"/>
      <point x="296" y="1000" type="line"/>
      <point x="90" y="1000" type="line"/>
      <point x="90" y="940" type="line"/>
      <point x="296" y="940" type="line"/>
      <point x="296" y="0" type="line"/>
      <point x="356" y="0" type="line"/>
      <point x="356" y="940" type="line"/>
    </contour>
  </outline>
</glyph>
<glyph name="u" format="2">
  <advance width="1048"/>
  <unicode hex="0075"/>
  <outline>
    <contour>
      <point x="90" y="448" type="line"/>
      <point x="94" y="196"/>
      <point x="270" y="-26"/>
      <point x="510" y="-26" type="curve"/>
      <point x="658" y="-26"/>
      <point x="786" y="60"/>
      <point x="868" y="206" type="curve"/>
      <point x="868" y="0" type="line"/>
      <point x="928" y="0" type="line"/>
      <point x="928" y="1000" type="line"/>
      <point x="868" y="1000" type="line"/>
      <point x="868" y="452" type="line"/>
      <point x="868" y="222"/>
      <point x="706" y="34"/>
      <point x="510" y="34" type="curve"/>
      <point x="312" y="34"/>
      <point x="150" y="222"/>
      <point x="150" y="452" type="curve"/>
      <point x="150" y="1000" type="line"/>
      <point x="90" y="1000" type="line"/>
    </contour>
  </outline>
</glyph>
<glyph name="v" format="2">
  <advance width="1004"/>
  <unicode hex="0076"/>
  <outline>
    <contour>
      <point x="538" y="0" type="line"/>
      <point x="904" y="1004" type="line"/>
      <point x="840" y="1004" type="line"/>
      <point x="502" y="74" type="line"/>
      <point x="164" y="1004" type="line"/>
      <point x="100" y="1004" type="line"/>
      <point x="466" y="0" type="line"/>
    </contour>
  </outline>
</glyph>
<glyph name="x" format="2">
  <advance width="886"/>
  <unicode hex="0078"/>
  <outline>
    <contour>
      <point x="40" y="0" type="line"/>
      <point x="114" y="0" type="line"/>
      <point x="444" y="452" type="line"/>
      <point x="772" y="0" type="line"/>
      <point x="846" y="0" type="line"/>
      <point x="480" y="502" type="line"/>
      <point x="846" y="1004" type="line"/>
      <point x="772" y="1004" type="line"/>
      <point x="444" y="554" type="line"/>
      <point x="114" y="1004" type="line"/>
      <point x="40" y="1004" type="line"/>
      <point x="406" y="502" type="line"/>
    </contour>
  </outline>
</glyph>
<glyph name="bar" format="2">
  <advance width="300"/>
  <unicode hex="007C"/>
  <outline>
    <contour>
      <point x="120" y="1400" type="line"/>
      <point x="120" y="-302" type="line"/>
      <point x="180" y="-302" type="line"/>
      <point x="180" y="1400" type="line"/>
    </contour>
  </outline>
</glyph>
<glyph name="asciitilde" format="2">
  <advance width="1161"/>
  <unicode hex="007E"/>
  <outline>
    <contour>
      <point x="847" y="593" type="curve" smooth="yes"/>
      <point x="993" y="593"/>
      <point x="1117" y="731"/>
      <point x="1071" y="881" type="curve"/>
      <point x="1013" y="863" type="line"/>
      <point x="1043" y="757"/>
      <point x="959" y="655"/>
      <point x="849" y="655" type="curve" smooth="yes"/>
      <point x="697" y="655"/>
      <point x="465" y="907"/>
      <point x="311" y="907" type="curve" smooth="yes"/>
      <point x="157" y="907"/>
      <point x="47" y="755"/>
      <point x="89" y="617" type="curve"/>
      <point x="147" y="631" type="line"/>
      <point x="119" y="743"/>
      <point x="201" y="847"/>
      <point x="309" y="845" type="curve" smooth="yes"/>
      <point x="441" y="847"/>
      <point x="683" y="593"/>
    </contour>
  </outline>
</glyph>
<glyph name="exclamdown" format="2">
  <advance width="330"/>
  <unicode hex="00A1"/>
  <outline>
    <contour>
      <point x="164" y="1026" type="curve"/>
      <point x="140" y="1026"/>
      <point x="120" y="1006"/>
      <point x="120" y="980" type="curve"/>
      <point x="120" y="956"/>
      <point x="140" y="936"/>
      <point x="164" y="936" type="curve"/>
      <point x="190" y="936"/>
      <point x="210" y="956"/>
      <point x="210" y="980" type="curve"/>
      <point x="210" y="1006"/>
      <point x="190" y="1026"/>
    </contour>
    <contour>
      <point x="194" y="580" type="line"/>
      <point x="134" y="580" type="line"/>
      <point x="134" y="-400" type="line"/>
      <point x="194" y="-400" type="line"/>
    </contour>
  </outline>
</glyph>
<glyph name="cent" format="2">
  <advance width="1092"/>
  <unicode hex="00A2"/>
  <outline>
    <contour>
      <point x="548" y="0" type="line"/>
      <point x="608" y="0" type="line"/>
      <point x="608" y="200" type="line"/>
      <point x="778" y="208"/>
      <point x="928" y="302"/>
      <point x="1012" y="440" type="curve"/>
      <point x="960" y="470" type="line"/>
      <point x="882" y="342"/>
      <point x="732" y="258"/>
      <point x="582" y="258" type="curve" smooth="yes"/>
      <point x="344" y="258"/>
      <point x="140" y="452"/>
      <point x="140" y="702" type="curve" smooth="yes"/>
      <point x="140" y="946"/>
      <point x="340" y="1144"/>
      <point x="582" y="1144" type="curve" smooth="yes"/>
      <point x="732" y="1144"/>
      <point x="882" y="1060"/>
      <point x="960" y="932" type="curve"/>
      <point x="1012" y="962" type="line"/>
      <point x="928" y="1100"/>
      <point x="778" y="1194"/>
      <point x="608" y="1202" type="curve"/>
      <point x="608" y="1400" type="line"/>
      <point x="548" y="1400" type="line"/>
      <point x="548" y="1202" type="line"/>
      <point x="286" y="1184"/>
      <point x="80" y="968"/>
      <point x="80" y="702" type="curve" smooth="yes"/>
      <point x="80" y="436"/>
      <point x="286" y="218"/>
      <point x="548" y="200" type="curve"/>
    </contour>
  </outline>
</glyph>
<glyph name="sterling" format="2">
  <advance width="1134"/>
  <unicode hex="00A3"/>
  <outline>
    <contour>
      <point x="104" y="0" type="line"/>
      <point x="1054" y="0" type="line"/>
      <point x="1054" y="60" type="line"/>
      <point x="294" y="60" type="line"/>
      <point x="382" y="96"/>
      <point x="474" y="192"/>
      <point x="474" y="300" type="curve" smooth="yes"/>
      <point x="474" y="364"/>
      <point x="464" y="414"/>
      <point x="448" y="452" type="curve"/>
      <point x="840" y="452" type="line"/>
      <point x="840" y="512" type="line"/>
      <point x="414" y="512" type="line"/>
      <point x="384" y="552"/>
      <point x="346" y="578"/>
      <point x="312" y="600" type="curve" smooth="yes"/>
      <point x="194" y="676"/>
      <point x="140" y="794"/>
      <point x="140" y="940" type="curve" smooth="yes"/>
      <point x="140" y="1174"/>
      <point x="332" y="1366"/>
      <point x="566" y="1366" type="curve" smooth="yes"/>
      <point x="802" y="1366"/>
      <point x="994" y="1174"/>
      <point x="994" y="940" type="curve"/>
      <point x="1054" y="940" type="line"/>
      <point x="1054" y="1208"/>
      <point x="836" y="1426"/>
      <point x="566" y="1426" type="curve" smooth="yes"/>
      <point x="298" y="1426"/>
      <point x="80" y="1208"/>
      <point x="80" y="940" type="curve" smooth="yes"/>
      <point x="80" y="730"/>
      <point x="154" y="666"/>
      <point x="330" y="512" type="curve"/>
      <point x="104" y="512" type="line"/>
      <point x="104" y="452" type="line"/>
      <point x="382" y="452" type="line"/>
      <point x="402" y="418"/>
      <point x="414" y="370"/>
      <point x="414" y="300" type="curve" smooth="yes"/>
      <point x="414" y="156"/>
      <point x="272" y="60"/>
      <point x="104" y="60" type="curve"/>
    </contour>
  </outline>
</glyph>
<glyph name="yen" format="2">
  <advance width="1148"/>
  <unicode hex="00A5"/>
  <outline>
    <contour>
      <point x="544" y="0" type="line"/>
      <point x="604" y="0" type="line"/>
      <point x="604" y="227" type="line"/>
      <point x="938" y="227" type="line"/>
      <point x="938" y="287" type="line"/>
      <point x="604" y="287" type="line"/>
      <point x="604" y="493" type="line"/>
      <point x="938" y="493" type="line"/>
      <point x="938" y="553" type="line"/>
      <point x="604" y="553" type="line"/>
      <point x="604" y="636" type="line"/>
      <point x="1068" y="1400" type="line"/>
      <point x="998" y="1400" type="line"/>
      <point x="574" y="702" type="line"/>
      <point x="150" y="1400" type="line"/>
      <point x="80" y="1400" type="line"/>
      <point x="544" y="636" type="line"/>
      <point x="544" y="553" type="line"/>
      <point x="210" y="553" type="line"/>
      <point x="210" y="493" type="line"/>
      <point x="544" y="493" type="line"/>
      <point x="544" y="287" type="line"/>
      <point x="210" y="287" type="line"/>
      <point x="210" y="227" type="line"/>
      <point x="544" y="227" type="line"/>
    </contour>
  </outline>
</glyph>
<glyph name="logicalnot" format="2">
  <advance width="934"/>
  <unicode hex="00AC"/>
  <outline>
    <contour>
      <point x="794" y="485" type="line"/>
      <point x="854" y="485" type="line"/>
      <point x="854" y="1015" type="line"/>
      <point x="80" y="1015" type="line"/>
      <point x="80" y="955" type="line"/>
      <point x="794" y="955" type="line"/>
    </contour>
  </outline>
</glyph>
<glyph name="macron" format="2">
  <advance width="916"/>
  <unicode hex="00AF"/>
  <outline>
    <contour>
      <point x="120" y="1322" type="line"/>
      <point x="120" y="1262" type="line"/>
      <point x="796" y="1262" type="line"/>
      <point x="796" y="1322" type="line"/>
    </contour>
  </outline>
</glyph>
<glyph name="periodcentered" format="2">
  <advance width="330"/>
  <unicode hex="00B7"/>
  <outline>
    <contour>
      <point x="164" y="454" type="curve" smooth="yes"/>
      <point x="190" y="454"/>
      <point x="210" y="474"/>
      <point x="210" y="500" type="curve" smooth="yes"/>
      <point x="210" y="524"/>
      <point x="190" y="544"/>
      <point x="164" y="544" type="curve" smooth="yes"/>
      <point x="140" y="544"/>
      <point x="120" y="524"/>
      <point x="120" y="500" type="curve" smooth="yes"/>
      <point x="120" y="474"/>
      <point x="140" y="454"/>
    </contour>
  </outline>
</glyph>
<glyph name="questiondown" format="2">
  <advance width="924"/>
  <unicode hex="00BF"/>
  <outline>
    <contour>
      <point x="482" y="-428" type="curve" smooth="yes"/>
      <point x="682" y="-428"/>
      <point x="844" y="-266"/>
      <point x="844" y="-66" type="curve"/>
      <point x="784" y="-66" type="line"/>
      <point x="784" y="-232"/>
      <point x="648" y="-368"/>
      <point x="482" y="-368" type="curve" smooth="yes"/>
      <point x="316" y="-368"/>
      <point x="180" y="-232"/>
      <point x="180" y="-66" type="curve" smooth="yes"/>
      <point x="180" y="48"/>
      <point x="238" y="150"/>
      <point x="332" y="202" type="curve" smooth="yes"/>
      <point x="436" y="260"/>
      <point x="498" y="365"/>
      <point x="498" y="480" type="curve"/>
      <point x="438" y="480" type="line"/>
      <point x="438" y="384"/>
      <point x="387" y="299"/>
      <point x="304" y="254" type="curve" smooth="yes"/>
      <point x="190" y="194"/>
      <point x="120" y="70"/>
      <point x="120" y="-66" type="curve" smooth="yes"/>
      <point x="120" y="-266"/>
      <point x="282" y="-428"/>
    </contour>
    <contour>
      <point x="482" y="936" type="curve" smooth="yes"/>
      <point x="506" y="936"/>
      <point x="526" y="956"/>
      <point x="526" y="980" type="curve" smooth="yes"/>
      <point x="526" y="1006"/>
      <point x="506" y="1026"/>
      <point x="482" y="1026" type="curve" smooth="yes"/>
      <point x="456" y="1026"/>
      <point x="436" y="1006"/>
      <point x="436" y="980" type="curve" smooth="yes"/>
      <point x="436" y="956"/>
      <point x="456" y="936"/>
    </contour>
  </outline>
</glyph>
<glyph name="AE" format="2">
  <advance width="1554"/>
  <unicode hex="00C6"/>
  <outline>
    <contour>
      <point x="80" y="0" type="line"/>
      <point x="144" y="0" type="line"/>
      <point x="268" y="340" type="line"/>
      <point x="782" y="340" type="line"/>
      <point x="782" y="0" type="line"/>
      <point x="1474" y="0" type="line"/>
      <point x="1474" y="60" type="line"/>
      <point x="842" y="60" type="line"/>
      <point x="842" y="670" type="line"/>
      <point x="1378" y="670" type="line"/>
      <point x="1378" y="730" type="line"/>
      <point x="842" y="730" type="line"/>
      <point x="842" y="1340" type="line"/>
      <point x="1474" y="1340" type="line"/>
      <point x="1474" y="1400" type="line"/>
      <point x="590" y="1400" type="line"/>
    </contour>
    <contour>
      <point x="290" y="400" type="line"/>
      <point x="634" y="1340" type="line"/>
      <point x="782" y="1340" type="line"/>
      <point x="782" y="400" type="line"/>
    </contour>
  </outline>
</glyph>
<glyph name="Eth" format="2">
  <advance width="1412"/>
  <unicode hex="00D0"/>
  <outline>
    <contour>
      <point x="228" y="0" type="line"/>
      <point x="692" y="0" type="line" smooth="yes"/>
      <point x="1078" y="0"/>
      <point x="1392" y="314"/>
      <point x="1392" y="700" type="curve" smooth="yes"/>
      <point x="1392" y="1086"/>
      <point x="1078" y="1400"/>
      <point x="692" y="1400" type="curve" smooth="yes"/>
      <point x="228" y="1400" type="line"/>
      <point x="228" y="730" type="line"/>
      <point x="100" y="730" type="line"/>
      <point x="100" y="670" type="line"/>
      <point x="228" y="670" type="line"/>
    </contour>
    <contour>
      <point x="288" y="60" type="line"/>
      <point x="288" y="670" type="line"/>
      <point x="686" y="670" type="line"/>
      <point x="686" y="730" type="line"/>
      <point x="288" y="730" type="line"/>
      <point x="288" y="1340" type="line"/>
      <point x="692" y="1340" type="line" smooth="yes"/>
      <point x="1036" y="1340"/>
      <point x="1332" y="1060"/>
      <point x="1332" y="700" type="curve" smooth="yes"/>
      <point x="1332" y="354"/>
      <point x="1052" y="60"/>
      <point x="692" y="60" type="curve" smooth="yes"/>
    </contour>
  </outline>
</glyph>
<glyph name="multiply" format="2">
  <advance width="910"/>
  <unicode hex="00D7"/>
  <outline>
    <contour>
      <point x="122" y="376" type="line"/>
      <point x="454" y="708" type="line"/>
      <point x="786" y="376" type="line"/>
      <point x="830" y="418" type="line"/>
      <point x="496" y="750" type="line"/>
      <point x="830" y="1082" type="line"/>
      <point x="786" y="1124" type="line"/>
      <point x="454" y="792" type="line"/>
      <point x="122" y="1124" type="line"/>
      <point x="80" y="1082" type="line"/>
      <point x="412" y="750" type="line"/>
      <point x="80" y="418" type="line"/>
    </contour>
  </outline>
</glyph>
<glyph name="ae" format="2">
  <advance width="1906"/>
  <unicode hex="00E6"/>
  <outline>
    <contour>
      <point x="460" y="0" type="curve" smooth="yes"/>
      <point x="572" y="0" type="line" smooth="yes"/>
      <point x="740" y="0"/>
      <point x="880" y="122"/>
      <point x="904" y="284" type="curve"/>
      <point x="988" y="116"/>
      <point x="1154" y="0"/>
      <point x="1348" y="0" type="curve" smooth="yes"/>
      <point x="1548" y="0"/>
      <point x="1720" y="124"/>
      <point x="1800" y="302" type="curve"/>
      <point x="1740" y="316" type="line"/>
      <point x="1660" y="156"/>
      <point x="1518" y="60"/>
      <point x="1348" y="60" type="curve" smooth="yes"/>
      <point x="1118" y="60"/>
      <point x="928" y="246"/>
      <point x="908" y="496" type="curve"/>
      <point x="1846" y="496" type="line"/>
      <point x="1840" y="830"/>
      <point x="1634" y="1054"/>
      <point x="1348" y="1054" type="curve" smooth="yes"/>
      <point x="1142" y="1054"/>
      <point x="964" y="922"/>
      <point x="888" y="734" type="curve"/>
      <point x="858" y="914"/>
      <point x="778" y="1054"/>
      <point x="530" y="1054" type="curve" smooth="yes"/>
      <point x="398" y="1054"/>
      <point x="234" y="1014"/>
      <point x="160" y="888" type="curve"/>
      <point x="212" y="858" type="line"/>
      <point x="276" y="964"/>
      <point x="420" y="994"/>
      <point x="530" y="994" type="curve" smooth="yes"/>
      <point x="826" y="994"/>
      <point x="830" y="796"/>
      <point x="846" y="556" type="curve"/>
      <point x="426" y="556" type="line" smooth="yes"/>
      <point x="246" y="556"/>
      <point x="80" y="516"/>
      <point x="70" y="318" type="curve"/>
      <point x="74" y="92"/>
      <point x="280" y="0"/>
    </contour>
    <contour>
      <point x="518" y="60" type="curve"/>
      <point x="312" y="60"/>
      <point x="134" y="112"/>
      <point x="130" y="318" type="curve"/>
      <point x="136" y="458"/>
      <point x="250" y="496"/>
      <point x="426" y="496" type="curve" smooth="yes"/>
      <point x="848" y="496" type="line"/>
      <point x="848" y="384" type="line"/>
      <point x="848" y="330"/>
      <point x="858" y="60"/>
    </contour>
    <contour>
      <point x="908" y="556" type="line"/>
      <point x="924" y="798"/>
      <point x="1110" y="994"/>
      <point x="1348" y="994" type="curve" smooth="yes"/>
      <point x="1584" y="994"/>
      <point x="1778" y="790"/>
      <point x="1786" y="556" type="curve"/>
    </contour>
  </outline>
</glyph>
<glyph name="igrave" format="2">
  <advance width="300"/>
  <unicode hex="00EC"/>
  <outline>
    <contour>
      <point x="120" y="1000" type="line"/>
      <point x="120" y="0" type="line"/>
      <point x="180" y="0" type="line"/>
      <point x="180" y="1000" type="line"/>
    </contour>
    <component base="grave" xOffset="-300"/>
  </outline>
</glyph>
<glyph name="idieresis" format="2">
  <advance width="300"/>
  <unicode hex="00EF"/>
  <outline>
    <contour>
      <point x="120" y="1000" type="line"/>
      <point x="120" y="0" type="line"/>
      <point x="180" y="0" type="line"/>
      <point x="180" y="1000" type="line"/>
    </contour>
    <component base="dieresiscomb" xOffset="-422"/>
  </outline>
</glyph>
<glyph name="divide" format="2">
  <advance width="1160"/>
  <unicode hex="00F7"/>
  <outline>
    <contour>
      <point x="80" y="720" type="line"/>
      <point x="1080" y="720" type="line"/>
      <point x="1080" y="780" type="line"/>
      <point x="80" y="780" type="line"/>
    </contour>
    <contour>
      <point x="580" y="1194" type="curve"/>
      <point x="532" y="1194"/>
      <point x="500" y="1152"/>
      <point x="500" y="1112" type="curve"/>
      <point x="500" y="1068"/>
      <point x="532" y="1032"/>
      <point x="580" y="1032" type="curve"/>
      <point x="622" y="1032"/>
      <point x="658" y="1068"/>
      <point x="658" y="1112" type="curve"/>
      <point x="658" y="1152"/>
      <point x="622" y="1194"/>
    </contour>
    <contour>
      <point x="580" y="466" type="curve"/>
      <point x="532" y="466"/>
      <point x="500" y="426"/>
      <point x="500" y="384" type="curve"/>
      <point x="500" y="340"/>
      <point x="532" y="306"/>
      <point x="580" y="306" type="curve"/>
      <point x="622" y="306"/>
      <point x="662" y="340"/>
      <point x="662" y="384" type="curve"/>
      <point x="662" y="426"/>
      <point x="622" y="466"/>
    </contour>
  </outline>
</glyph>
<glyph name="oslash" format="2">
  <advance width="1120"/>
  <unicode hex="00F8"/>
  <outline>
    <contour>
      <point x="282" y="-40" type="line"/>
      <point x="326" y="36" type="line"/>
      <point x="396" y="-2"/>
      <point x="476" y="-26"/>
      <point x="560" y="-26" type="curve" smooth="yes"/>
      <point x="836" y="-26"/>
      <point x="1060" y="210"/>
      <point x="1060" y="500" type="curve" smooth="yes"/>
      <point x="1060" y="682"/>
      <point x="976" y="840"/>
      <point x="846" y="936" type="curve"/>
      <point x="892" y="1014" type="line"/>
      <point x="840" y="1044" type="line"/>
      <point x="794" y="968" type="line"/>
      <point x="726" y="1006"/>
      <point x="646" y="1028"/>
      <point x="560" y="1028" type="curve" smooth="yes"/>
      <point x="284" y="1028"/>
      <point x="60" y="792"/>
      <point x="60" y="500" type="curve" smooth="yes"/>
      <point x="60" y="322"/>
      <point x="146" y="164"/>
      <point x="276" y="68" type="curve"/>
      <point x="230" y="-10" type="line"/>
    </contour>
    <contour>
      <point x="306" y="122" type="line"/>
      <point x="194" y="206"/>
      <point x="120" y="344"/>
      <point x="120" y="500" type="curve" smooth="yes"/>
      <point x="120" y="846"/>
      <point x="472" y="1080"/>
      <point x="764" y="916" type="curve"/>
    </contour>
    <contour>
      <point x="356" y="88" type="curve"/>
      <point x="816" y="882" type="line"/>
      <point x="928" y="796"/>
      <point x="1000" y="656"/>
      <point x="1000" y="500" type="curve" smooth="yes"/>
      <point x="1000" y="162"/>
      <point x="660" y="-80"/>
    </contour>
  </outline>
</glyph>
<glyph name="OE" format="2">
  <advance width="2166"/>
  <unicode hex="0152"/>
  <outline>
    <contour>
      <point x="750" y="-26" type="curve" smooth="yes"/>
      <point x="1030" y="-26"/>
      <point x="1272" y="152"/>
      <point x="1380" y="404" type="curve"/>
      <point x="1380" y="0" type="line"/>
      <point x="2086" y="0" type="line"/>
      <point x="2086" y="60" type="line"/>
      <point x="1440" y="60" type="line"/>
      <point x="1440" y="670" type="line"/>
      <point x="1990" y="670" type="line"/>
      <point x="1990" y="730" type="line"/>
      <point x="1440" y="730" type="line"/>
      <point x="1440" y="1340" type="line"/>
      <point x="2086" y="1340" type="line"/>
      <point x="2086" y="1400" type="line"/>
      <point x="1380" y="1400" type="line"/>
      <point x="1380" y="996" type="line"/>
      <point x="1272" y="1248"/>
      <point x="1030" y="1426"/>
      <point x="750" y="1426" type="curve" smooth="yes"/>
      <point x="370" y="1426"/>
      <point x="60" y="1100"/>
      <point x="60" y="700" type="curve" smooth="yes"/>
      <point x="60" y="300"/>
      <point x="370" y="-26"/>
    </contour>
    <contour>
      <point x="750" y="34" type="curve" smooth="yes"/>
      <point x="402" y="34"/>
      <point x="120" y="334"/>
      <point x="120" y="700" type="curve" smooth="yes"/>
      <point x="120" y="1060"/>
      <point x="398" y="1366"/>
      <point x="750" y="1366" type="curve" smooth="yes"/>
      <point x="1098" y="1366"/>
      <point x="1380" y="1064"/>
      <point x="1380" y="700" type="curve" smooth="yes"/>
      <point x="1380" y="340"/>
      <point x="1102" y="34"/>
    </contour>
  </outline>
</glyph>
<glyph name="caron" format="2">
  <advance width="482"/>
  <unicode hex="02C7"/>
  <outline>
    <contour>
      <point x="222" y="1166" type="line"/>
      <point x="262" y="1166" type="line"/>
      <point x="362" y="1400" type="line"/>
      <point x="312" y="1400" type="line"/>
      <point x="242" y="1232" type="line"/>
      <point x="170" y="1400" type="line"/>
      <point x="120" y="1400" type="line"/>
    </contour>
  </outline>
</glyph>
<glyph name="breve" format="2">
  <advance width="904"/>
  <unicode hex="02D8"/>
  <outline>
    <contour>
      <point x="452" y="1128" type="curve" smooth="yes"/>
      <point x="628" y="1128"/>
      <point x="784" y="1272"/>
      <point x="784" y="1460" type="curve"/>
      <point x="724" y="1460" type="line"/>
      <point x="724" y="1310"/>
      <point x="600" y="1188"/>
      <point x="452" y="1188" type="curve" smooth="yes"/>
      <point x="310" y="1188"/>
      <point x="180" y="1302"/>
      <point x="180" y="1460" type="curve"/>
      <point x="120" y="1460" type="line"/>
      <point x="120" y="1278"/>
      <point x="270" y="1128"/>
    </contour>
  </outline>
</glyph>
<glyph name="ogonek" format="2">
  <advance width="1200"/>
  <unicode hex="02DB"/>
  <outline>
    <contour>
      <point x="692" y="-352" type="curve" smooth="yes"/>
      <point x="722" y="-352" type="line"/>
      <point x="722" y="-292" type="line"/>
      <point x="692" y="-292" type="line" smooth="yes"/>
      <point x="536" y="-292"/>
      <point x="408" y="-164"/>
      <point x="408" y="-8" type="curve" smooth="yes"/>
      <point x="408" y="62" type="line"/>
      <point x="348" y="62" type="line"/>
      <point x="348" y="-8" type="line" smooth="yes"/>
      <point x="348" y="-198"/>
      <point x="502" y="-352"/>
    </contour>
  </outline>
</glyph>
<glyph name="gravecomb" format="2">
  <unicode hex="0300"/>
  <outline>
    <contour>
      <point x="320" y="1426" type="line"/>
      <point x="440" y="1138" type="line"/>
      <point x="460" y="1138" type="line"/>
      <point x="380" y="1426" type="line"/>
    </contour>
  </outline>
</glyph>
<glyph name="tildecomb" format="2">
  <unicode hex="0303"/>
  <outline>
    <contour>
      <point x="776" y="1314" type="curve" smooth="yes"/>
      <point x="874" y="1314"/>
      <point x="944" y="1412"/>
      <point x="916" y="1498" type="curve"/>
      <point x="860" y="1480" type="line"/>
      <point x="872" y="1448"/>
      <point x="840" y="1374"/>
      <point x="792" y="1374" type="curve" smooth="yes"/>
      <point x="706" y="1374"/>
      <point x="566" y="1520"/>
      <point x="464" y="1520" type="curve" smooth="yes"/>
      <point x="368" y="1520"/>
      <point x="298" y="1420"/>
      <point x="326" y="1338" type="curve"/>
      <point x="384" y="1354" type="line"/>
      <point x="370" y="1410"/>
      <point x="410" y="1460"/>
      <point x="458" y="1460" type="curve" smooth="yes"/>
      <point x="550" y="1460"/>
      <point x="678" y="1314"/>
    </contour>
  </outline>
</glyph>
<glyph name="endash" format="2">
  <advance width="1240"/>
  <unicode hex="2013"/>
  <outline>
    <contour>
      <point x="120" y="530" type="line"/>
      <point x="120" y="470" type="line"/>
      <point x="1120" y="470" type="line"/>
      <point x="1120" y="530" type="line"/>
    </contour>
  </outline>
</glyph>
<glyph name="emdash" format="2">
  <advance width="2040"/>
  <unicode hex="2014"/>
  <outline>
    <contour>
      <point x="120" y="530" type="line"/>
      <point x="120" y="470" type="line"/>
      <point x="1920" y="470" type="line"/>
      <point x="1920" y="530" type="line"/>
    </contour>
  </outline>
</glyph>
<glyph name="quoteleft" format="2">
  <advance width="362"/>
  <unicode hex="2018"/>
  <unicode hex="02BB"/>
  <outline>
    <contour>
      <point x="120" y="878" type="line"/>
      <point x="180" y="878" type="line"/>
      <point x="242" y="1400" type="line"/>
      <point x="202" y="1400" type="line"/>
    </contour>
  </outline>
</glyph>
<glyph name="quoteright" format="2">
  <advance width="362"/>
  <unicode hex="2019"/>
  <unicode hex="2032"/>
  <outline>
    <contour>
      <point x="120" y="878" type="line"/>
      <point x="160" y="878" type="line"/>
      <point x="242" y="1400" type="line"/>
      <point x="182" y="1400" type="line"/>
    </contour>
  </outline>
</glyph>
<glyph name="bullet" format="2">
  <advance width="440"/>
  <unicode hex="2022"/>
  <outline>
    <contour>
      <point x="218" y="440" type="curve" smooth="yes"/>
      <point x="254" y="440"/>
      <point x="280" y="466"/>
      <point x="280" y="502" type="curve" smooth="yes"/>
      <point x="280" y="534"/>
      <point x="254" y="560"/>
      <point x="218" y="560" type="curve" smooth="yes"/>
      <point x="186" y="560"/>
      <point x="160" y="534"/>
      <point x="160" y="502" type="curve" smooth="yes"/>
      <point x="160" y="466"/>
      <point x="186" y="440"/>
    </contour>
  </outline>
</glyph>
<glyph name="primeReversed" format="2">
  <advance width="362"/>
  <unicode hex="2035"/>
  <outline>
    <contour>
      <point x="202" y="878" type="line"/>
      <point x="242" y="878" type="line"/>
      <point x="180" y="1400" type="line"/>
      <point x="120" y="1400" type="line"/>
    </contour>
  </outline>
</glyph>
<glyph name="guilsinglleft" format="2">
  <advance width="620"/>
  <unicode hex="2039"/>
  <outline>
    <contour>
      <point x="420" y="162" type="line"/>
      <point x="500" y="162" type="line"/>
      <point x="200" y="502" type="line"/>
      <point x="500" y="840" type="line"/>
      <point x="420" y="840" type="line"/>
      <point x="120" y="502" type="line"/>
    </contour>
  </outline>
</glyph>
<glyph name="guilsinglright" format="2">
  <advance width="620"/>
  <unicode hex="203A"/>
  <outline>
    <contour>
      <point x="120" y="162" type="line"/>
      <point x="200" y="162" type="line"/>
      <point x="500" y="502" type="line"/>
      <point x="200" y="840" type="line"/>
      <point x="120" y="840" type="line"/>
      <point x="420" y="502" type="line"/>
    </contour>
  </outline>
</glyph>
<glyph name="fraction" format="2">
  <advance width="998"/>
  <unicode hex="2044"/>
  <unicode hex="2215"/>
  <outline>
    <contour>
      <point x="60" y="0" type="line"/>
      <point x="130" y="0" type="line"/>
      <point x="938" y="1400" type="line"/>
      <point x="868" y="1400" type="line"/>
    </contour>
  </outline>
</glyph>
<glyph name="downArrow" format="2">
  <advance width="1094"/>
  <unicode hex="2193"/>
  <outline>
    <contour>
      <point x="546" y="160" type="line"/>
      <point x="1014" y="626" type="line"/>
      <point x="972" y="668" type="line"/>
      <point x="576" y="274" type="line"/>
      <point x="576" y="1340" type="line"/>
      <point x="516" y="1340" type="line"/>
      <point x="516" y="274" type="line"/>
      <point x="122" y="668" type="line"/>
      <point x="80" y="626" type="line"/>
    </contour>
  </outline>
</glyph>
<glyph name="minus" format="2">
  <advance width="1160"/>
  <unicode hex="2212"/>
  <outline>
    <contour>
      <point x="80" y="720" type="line"/>
      <point x="1080" y="720" type="line"/>
      <point x="1080" y="780" type="line"/>
      <point x="80" y="780" type="line"/>
    </contour>
  </outline>
</glyph>
<glyph name="notequal" format="2">
  <advance width="1160"/>
  <unicode hex="2260"/>
  <outline>
    <contour>
      <point x="780" y="1332" type="line"/>
      <point x="718" y="1332" type="line"/>
      <point x="614" y="972" type="line"/>
      <point x="80" y="972" type="line"/>
      <point x="80" y="912" type="line"/>
      <point x="596" y="912" type="line"/>
      <point x="500" y="588" type="line"/>
      <point x="80" y="588" type="line"/>
      <point x="80" y="528" type="line"/>
      <point x="484" y="528" type="line"/>
      <point x="378" y="168" type="line"/>
      <point x="440" y="168" type="line"/>
      <point x="546" y="528" type="line"/>
      <point x="1080" y="528" type="line"/>
      <point x="1080" y="588" type="line"/>
      <point x="564" y="588" type="line"/>
      <point x="658" y="912" type="line"/>
      <point x="1080" y="912" type="line"/>
      <point x="1080" y="972" type="line"/>
      <point x="676" y="972" type="line"/>
    </contour>
  </outline>
</glyph>
<glyph name="lessequal" format="2">
  <advance width="1160"/>
  <unicode hex="2264"/>
  <outline>
    <contour>
      <point x="1080" y="418" type="line"/>
      <point x="1080" y="480" type="line"/>
      <point x="134" y="750" type="line"/>
      <point x="1080" y="1018" type="line"/>
      <point x="1080" y="1082" type="line"/>
      <point x="80" y="796" type="line"/>
      <point x="80" y="702" type="line"/>
    </contour>
    <contour>
      <point x="80" y="0" type="line"/>
      <point x="1080" y="0" type="line"/>
      <point x="1080" y="60" type="line"/>
      <point x="80" y="60" type="line"/>
    </contour>
  </outline>
</glyph>
<glyph name="eight.dnom" format="2">
  <advance width="494"/>
  <outline>
    <contour>
      <point x="246" y="-26" type="curve" smooth="yes"/>
      <point x="338" y="-26"/>
      <point x="414" y="38"/>
      <point x="414" y="130" type="curve" smooth="yes"/>
      <point x="414" y="188"/>
      <point x="384" y="238"/>
      <point x="340" y="268" type="curve"/>
      <point x="376" y="296"/>
      <point x="400" y="340"/>
      <point x="400" y="388" type="curve" smooth="yes"/>
      <point x="400" y="474"/>
      <point x="332" y="532"/>
      <point x="246" y="532" type="curve" smooth="yes"/>
      <point x="162" y="532"/>
      <point x="94" y="474"/>
      <point x="94" y="388" type="curve" smooth="yes"/>
      <point x="94" y="340"/>
      <point x="118" y="296"/>
      <point x="154" y="268" type="curve"/>
      <point x="110" y="238"/>
      <point x="80" y="188"/>
      <point x="80" y="130" type="curve" smooth="yes"/>
      <point x="80" y="38"/>
      <point x="156" y="-26"/>
    </contour>
    <contour>
      <point x="246" y="34" type="curve" smooth="yes"/>
      <point x="188" y="34"/>
      <point x="140" y="72"/>
      <point x="140" y="130" type="curve" smooth="yes"/>
      <point x="140" y="188"/>
      <point x="188" y="236"/>
      <point x="246" y="236" type="curve" smooth="yes"/>
      <point x="306" y="236"/>
      <point x="354" y="188"/>
      <point x="354" y="130" type="curve" smooth="yes"/>
      <point x="354" y="72"/>
      <point x="306" y="34"/>
    </contour>
    <contour>
      <point x="246" y="296" type="curve" smooth="yes"/>
      <point x="196" y="296"/>
      <point x="154" y="338"/>
      <point x="154" y="388" type="curve" smooth="yes"/>
      <point x="154" y="440"/>
      <point x="196" y="472"/>
      <point x="246" y="472" type="curve" smooth="yes"/>
      <point x="298" y="472"/>
      <point x="340" y="440"/>
      <point x="340" y="388" type="curve" smooth="yes"/>
      <point x="340" y="338"/>
      <point x="298" y="296"/>
    </contour>
  </outline>
</glyph>
<glyph name="eight.numr" format="2">
  <advance width="494"/>
  <outline>
    <contour>
      <point x="246" y="832" type="curve" smooth="yes"/>
      <point x="338" y="832"/>
      <point x="414" y="896"/>
      <point x="414" y="988" type="curve" smooth="yes"/>
      <point x="414" y="1046"/>
      <point x="384" y="1096"/>
      <point x="340" y="1126" type="curve"/>
      <point x="376" y="1154"/>
      <point x="400" y="1198"/>
      <point x="400" y="1246" type="curve" smooth="yes"/>
      <point x="400" y="1332"/>
      <point x="332" y="1390"/>
      <point x="246" y="1390" type="curve" smooth="yes"/>
      <point x="162" y="1390"/>
      <point x="94" y="1332"/>
      <point x="94" y="1246" type="curve" smooth="yes"/>
      <point x="94" y="1198"/>
      <point x="118" y="1154"/>
      <point x="154" y="1126" type="curve"/>
      <point x="110" y="1096"/>
      <point x="80" y="1046"/>
      <point x="80" y="988" type="curve" smooth="yes"/>
      <point x="80" y="896"/>
      <point x="156" y="832"/>
    </contour>
    <contour>
      <point x="246" y="892" type="curve" smooth="yes"/>
      <point x="188" y="892"/>
      <point x="140" y="930"/>
      <point x="140" y="988" type="curve" smooth="yes"/>
      <point x="140" y="1046"/>
      <point x="188" y="1094"/>
      <point x="246" y="1094" type="curve" smooth="yes"/>
      <point x="306" y="1094"/>
      <point x="354" y="1046"/>
      <point x="354" y="988" type="curve" smooth="yes"/>
      <point x="354" y="930"/>
      <point x="306" y="892"/>
    </contour>
    <contour>
      <point x="246" y="1154" type="curve" smooth="yes"/>
      <point x="196" y="1154"/>
      <point x="154" y="1196"/>
      <point x="154" y="1246" type="curve" smooth="yes"/>
      <point x="154" y="1298"/>
      <point x="196" y="1330"/>
      <point x="246" y="1330" type="curve" smooth="yes"/>
      <point x="298" y="1330"/>
      <point x="340" y="1298"/>
      <point x="340" y="1246" type="curve" smooth="yes"/>
      <point x="340" y="1196"/>
      <point x="298" y="1154"/>
    </contour>
  </outline>
</glyph>
<glyph name="five.dnom" format="2">
  <advance width="558"/>
  <outline>
    <contour>
      <point x="254" y="-26" type="curve"/>
      <point x="356" y="-26"/>
      <point x="438" y="46"/>
      <point x="438" y="148" type="curve"/>
      <point x="438" y="248"/>
      <point x="356" y="330"/>
      <point x="254" y="330" type="curve"/>
      <point x="174" y="324" type="line"/>
      <point x="184" y="454" type="line"/>
      <point x="420" y="454" type="line"/>
      <point x="420" y="514" type="line"/>
      <point x="130" y="514" type="line"/>
      <point x="106" y="242" type="line"/>
      <point x="254" y="270" type="line"/>
      <point x="322" y="270"/>
      <point x="378" y="216"/>
      <point x="378" y="148" type="curve"/>
      <point x="378" y="80"/>
      <point x="322" y="34"/>
      <point x="254" y="34" type="curve"/>
      <point x="186" y="34"/>
      <point x="130" y="80"/>
      <point x="130" y="148" type="curve" smooth="yes"/>
      <point x="70" y="148" type="line" smooth="yes"/>
      <point x="70" y="46"/>
      <point x="152" y="-26"/>
    </contour>
  </outline>
</glyph>
<glyph name="five.numr" format="2">
  <advance width="558"/>
  <outline>
    <contour>
      <point x="254" y="832" type="curve" smooth="yes"/>
      <point x="356" y="832"/>
      <point x="438" y="904"/>
      <point x="438" y="1006" type="curve" smooth="yes"/>
      <point x="438" y="1141"/>
      <point x="323" y="1205"/>
      <point x="174" y="1182" type="curve"/>
      <point x="184" y="1314" type="line"/>
      <point x="420" y="1314" type="line"/>
      <point x="420" y="1374" type="line"/>
      <point x="130" y="1374" type="line"/>
      <point x="106" y="1100" type="line"/>
      <point x="174" y="1122"/>
      <point x="194" y="1128"/>
      <point x="254" y="1128" type="curve" smooth="yes"/>
      <point x="322" y="1128"/>
      <point x="378" y="1074"/>
      <point x="378" y="1006" type="curve" smooth="yes"/>
      <point x="378" y="938"/>
      <point x="322" y="892"/>
      <point x="254" y="892" type="curve" smooth="yes"/>
      <point x="186" y="892"/>
      <point x="130" y="938"/>
      <point x="130" y="1006" type="curve"/>
      <point x="70" y="1006" type="line"/>
      <point x="70" y="904"/>
      <point x="152" y="832"/>
    </contour>
  </outline>
</glyph>
<glyph name="four.dnom" format="2">
  <advance width="562"/>
  <outline>
    <contour>
      <point x="316" y="0" type="line"/>
      <point x="376" y="0" type="line"/>
      <point x="376" y="116" type="line"/>
      <point x="442" y="116" type="line"/>
      <point x="442" y="176" type="line"/>
      <point x="376" y="176" type="line"/>
      <point x="376" y="526" type="line"/>
      <point x="294" y="526" type="line"/>
      <point x="80" y="188" type="line"/>
      <point x="80" y="116" type="line"/>
      <point x="316" y="116" type="line"/>
    </contour>
    <contour>
      <point x="144" y="176" type="line"/>
      <point x="316" y="446" type="line"/>
      <point x="316" y="176" type="line"/>
    </contour>
  </outline>
</glyph>
<glyph name="four.numr" format="2">
  <advance width="562"/>
  <outline>
    <contour>
      <point x="316" y="848" type="line"/>
      <point x="376" y="848" type="line"/>
      <point x="376" y="964" type="line"/>
      <point x="442" y="964" type="line"/>
      <point x="442" y="1024" type="line"/>
      <point x="376" y="1024" type="line"/>
      <point x="376" y="1374" type="line"/>
      <point x="294" y="1374" type="line"/>
      <point x="80" y="1036" type="line"/>
      <point x="80" y="964" type="line"/>
      <point x="316" y="964" type="line"/>
    </contour>
    <contour>
      <point x="144" y="1024" type="line"/>
      <point x="316" y="1294" type="line"/>
      <point x="316" y="1024" type="line"/>
    </contour>
  </outline>
</glyph>
<glyph name="nine.dnom" format="2">
  <advance width="548"/>
  <outline>
    <contour>
      <point x="202" y="0" type="line"/>
      <point x="270" y="0" type="line"/>
      <point x="418" y="254" type="line"/>
      <point x="418" y="256"/>
      <point x="420" y="258"/>
      <point x="422" y="262" type="curve" smooth="yes"/>
      <point x="498" y="390"/>
      <point x="402" y="542"/>
      <point x="254" y="542" type="curve" smooth="yes"/>
      <point x="188" y="542"/>
      <point x="122" y="518"/>
      <point x="86" y="454" type="curve" smooth="yes"/>
      <point x="0" y="308"/>
      <point x="134" y="128"/>
      <point x="300" y="170" type="curve"/>
    </contour>
    <contour>
      <point x="254" y="224" type="curve" smooth="yes"/>
      <point x="200" y="224"/>
      <point x="142" y="260"/>
      <point x="124" y="324" type="curve" smooth="yes"/>
      <point x="104" y="410"/>
      <point x="168" y="482"/>
      <point x="254" y="482" type="curve" smooth="yes"/>
      <point x="308" y="482"/>
      <point x="366" y="456"/>
      <point x="384" y="392" type="curve" smooth="yes"/>
      <point x="404" y="304"/>
      <point x="340" y="224"/>
    </contour>
  </outline>
</glyph>
<glyph name="nine.numr" format="2">
  <advance width="548"/>
  <outline>
    <contour>
      <point x="202" y="848" type="line"/>
      <point x="270" y="848" type="line"/>
      <point x="418" y="1102" type="line"/>
      <point x="418" y="1104"/>
      <point x="420" y="1106"/>
      <point x="422" y="1110" type="curve" smooth="yes"/>
      <point x="498" y="1238"/>
      <point x="402" y="1390"/>
      <point x="254" y="1390" type="curve" smooth="yes"/>
      <point x="188" y="1390"/>
      <point x="122" y="1366"/>
      <point x="86" y="1302" type="curve" smooth="yes"/>
      <point x="0" y="1156"/>
      <point x="134" y="976"/>
      <point x="300" y="1018" type="curve"/>
    </contour>
    <contour>
      <point x="254" y="1072" type="curve" smooth="yes"/>
      <point x="200" y="1072"/>
      <point x="142" y="1108"/>
      <point x="124" y="1172" type="curve" smooth="yes"/>
      <point x="104" y="1258"/>
      <point x="168" y="1330"/>
      <point x="254" y="1330" type="curve" smooth="yes"/>
      <point x="308" y="1330"/>
      <point x="366" y="1304"/>
      <point x="384" y="1240" type="curve" smooth="yes"/>
      <point x="404" y="1152"/>
      <point x="340" y="1072"/>
    </contour>
  </outline>
</glyph>
<glyph name="one.dnom" format="2">
  <advance width="334"/>
  <outline>
    <contour>
      <point x="154" y="0" type="line"/>
      <point x="214" y="0" type="line"/>
      <point x="214" y="526" type="line"/>
      <point x="88" y="526" type="line"/>
      <point x="80" y="466" type="line"/>
      <point x="154" y="466" type="line"/>
    </contour>
  </outline>
</glyph>
<glyph name="one.numr" format="2">
  <advance width="334"/>
  <outline>
    <contour>
      <point x="154" y="848" type="line"/>
      <point x="214" y="848" type="line"/>
      <point x="214" y="1374" type="line"/>
      <point x="88" y="1374" type="line"/>
      <point x="80" y="1314" type="line"/>
      <point x="154" y="1314" type="line"/>
    </contour>
  </outline>
</glyph>
<glyph name="seven.dnom" format="2">
  <advance width="510"/>
  <outline>
    <contour>
      <point x="136" y="0" type="line"/>
      <point x="206" y="0" type="line"/>
      <point x="450" y="424" type="line"/>
      <point x="450" y="484" type="line"/>
      <point x="100" y="484" type="line"/>
      <point x="100" y="424" type="line"/>
      <point x="380" y="424" type="line"/>
    </contour>
  </outline>
</glyph>
<glyph name="seven.numr" format="2">
  <advance width="510"/>
  <outline>
    <contour>
      <point x="113" y="848" type="line"/>
      <point x="183" y="848" type="line"/>
      <point x="450" y="1314" type="line"/>
      <point x="450" y="1374" type="line"/>
      <point x="100" y="1374" type="line"/>
      <point x="100" y="1314" type="line"/>
      <point x="380" y="1314" type="line"/>
    </contour>
  </outline>
</glyph>
<glyph name="six.dnom" format="2">
  <advance width="568"/>
  <outline>
    <contour>
      <point x="274" y="-26" type="curve"/>
      <point x="376" y="-26"/>
      <point x="468" y="44"/>
      <point x="468" y="158" type="curve"/>
      <point x="468" y="276"/>
      <point x="354" y="378"/>
      <point x="228" y="346" type="curve" smooth="yes"/>
      <point x="326" y="516" type="line"/>
      <point x="256" y="516" type="line" smooth="yes"/>
      <point x="112" y="272"/>
      <point x="80" y="224"/>
      <point x="80" y="158" type="curve"/>
      <point x="80" y="56"/>
      <point x="160" y="-26"/>
    </contour>
    <contour>
      <point x="274" y="34" type="curve"/>
      <point x="200" y="34"/>
      <point x="140" y="84"/>
      <point x="140" y="156" type="curve"/>
      <point x="140" y="232"/>
      <point x="200" y="292"/>
      <point x="274" y="292" type="curve"/>
      <point x="340" y="292"/>
      <point x="408" y="240"/>
      <point x="408" y="158" type="curve"/>
      <point x="408" y="84"/>
      <point x="348" y="34"/>
    </contour>
  </outline>
</glyph>
<glyph name="six.numr" format="2">
  <advance width="588"/>
  <outline>
    <contour>
      <point x="274" y="832" type="curve" smooth="yes"/>
      <point x="376" y="832"/>
      <point x="468" y="902"/>
      <point x="468" y="1016" type="curve" smooth="yes"/>
      <point x="468" y="1134"/>
      <point x="354" y="1236"/>
      <point x="228" y="1204" type="curve"/>
      <point x="325" y="1372" type="line"/>
      <point x="255" y="1372" type="line"/>
      <point x="111" y="1128"/>
      <point x="80" y="1082"/>
      <point x="80" y="1016" type="curve" smooth="yes"/>
      <point x="80" y="914"/>
      <point x="160" y="832"/>
    </contour>
    <contour>
      <point x="274" y="892" type="curve" smooth="yes"/>
      <point x="200" y="892"/>
      <point x="140" y="942"/>
      <point x="140" y="1014" type="curve" smooth="yes"/>
      <point x="140" y="1090"/>
      <point x="200" y="1150"/>
      <point x="274" y="1150" type="curve" smooth="yes"/>
      <point x="340" y="1150"/>
      <point x="408" y="1098"/>
      <point x="408" y="1016" type="curve" smooth="yes"/>
      <point x="408" y="942"/>
      <point x="348" y="892"/>
    </contour>
  </outline>
</glyph>
<glyph name="three.dnom" format="2">
  <advance width="450"/>
  <outline>
    <contour>
      <point x="226" y="-26" type="curve" smooth="yes"/>
      <point x="316" y="-26"/>
      <point x="390" y="38"/>
      <point x="390" y="130" type="curve" smooth="yes"/>
      <point x="390" y="198"/>
      <point x="364" y="230"/>
      <point x="314" y="268" type="curve"/>
      <point x="346" y="284"/>
      <point x="374" y="336"/>
      <point x="374" y="388" type="curve" smooth="yes"/>
      <point x="374" y="472"/>
      <point x="306" y="530"/>
      <point x="222" y="530" type="curve" smooth="yes"/>
      <point x="138" y="530"/>
      <point x="70" y="472"/>
      <point x="70" y="388" type="curve"/>
      <point x="130" y="388" type="line"/>
      <point x="130" y="438"/>
      <point x="172" y="470"/>
      <point x="222" y="470" type="curve" smooth="yes"/>
      <point x="272" y="470"/>
      <point x="314" y="438"/>
      <point x="314" y="388" type="curve" smooth="yes"/>
      <point x="314" y="328"/>
      <point x="270" y="296"/>
      <point x="194" y="296" type="curve"/>
      <point x="194" y="236" type="line"/>
      <point x="280" y="236"/>
      <point x="330" y="196"/>
      <point x="330" y="130" type="curve" smooth="yes"/>
      <point x="330" y="72"/>
      <point x="284" y="34"/>
      <point x="226" y="34" type="curve" smooth="yes"/>
      <point x="166" y="34"/>
      <point x="120" y="72"/>
      <point x="120" y="130" type="curve"/>
      <point x="60" y="130" type="line"/>
      <point x="60" y="38"/>
      <point x="134" y="-26"/>
    </contour>
  </outline>
</glyph>
<glyph name="three.numr" format="2">
  <advance width="450"/>
  <outline>
    <contour>
      <point x="226" y="832" type="curve"/>
      <point x="316" y="832"/>
      <point x="390" y="896"/>
      <point x="390" y="988" type="curve"/>
      <point x="390" y="1056"/>
      <point x="364" y="1088"/>
      <point x="314" y="1126" type="curve"/>
      <point x="346" y="1142"/>
      <point x="374" y="1194"/>
      <point x="374" y="1246" type="curve"/>
      <point x="374" y="1330"/>
      <point x="306" y="1388"/>
      <point x="222" y="1388" type="curve"/>
      <point x="138" y="1388"/>
      <point x="70" y="1330"/>
      <point x="70" y="1246" type="curve"/>
      <point x="130" y="1246" type="line"/>
      <point x="130" y="1296"/>
      <point x="172" y="1328"/>
      <point x="222" y="1328" type="curve"/>
      <point x="272" y="1328"/>
      <point x="314" y="1296"/>
      <point x="314" y="1246" type="curve"/>
      <point x="314" y="1186"/>
      <point x="270" y="1154"/>
      <point x="194" y="1154" type="curve"/>
      <point x="194" y="1094" type="line"/>
      <point x="280" y="1094"/>
      <point x="330" y="1054"/>
      <point x="330" y="988" type="curve"/>
      <point x="330" y="930"/>
      <point x="284" y="892"/>
      <point x="226" y="892" type="curve"/>
      <point x="166" y="892"/>
      <point x="120" y="930"/>
      <point x="120" y="988" type="curve"/>
      <point x="60" y="988" type="line"/>
      <point x="60" y="896"/>
      <point x="134" y="832"/>
    </contour>
  </outline>
</glyph>
<glyph name="two.dnom" format="2">
  <advance width="558"/>
  <outline>
    <contour>
      <point x="80" y="0" type="line"/>
      <point x="438" y="0" type="line"/>
      <point x="438" y="60" type="line"/>
      <point x="182" y="60" type="line"/>
      <point x="284" y="130"/>
      <point x="438" y="272"/>
      <point x="438" y="372" type="curve" smooth="yes"/>
      <point x="438" y="470"/>
      <point x="358" y="542"/>
      <point x="260" y="542" type="curve" smooth="yes"/>
      <point x="160" y="542"/>
      <point x="80" y="470"/>
      <point x="80" y="372" type="curve"/>
      <point x="140" y="372" type="line"/>
      <point x="140" y="438"/>
      <point x="194" y="482"/>
      <point x="260" y="482" type="curve" smooth="yes"/>
      <point x="326" y="482"/>
      <point x="378" y="438"/>
      <point x="378" y="372" type="curve" smooth="yes"/>
      <point x="378" y="276"/>
      <point x="162" y="116"/>
      <point x="80" y="62" type="curve"/>
    </contour>
  </outline>
</glyph>
<glyph name="two.numr" format="2">
  <advance width="558"/>
  <outline>
    <contour>
      <point x="80" y="848" type="line"/>
      <point x="438" y="848" type="line"/>
      <point x="438" y="908" type="line"/>
      <point x="182" y="908" type="line"/>
      <point x="284" y="978"/>
      <point x="438" y="1120"/>
      <point x="438" y="1220" type="curve" smooth="yes"/>
      <point x="438" y="1318"/>
      <point x="358" y="1390"/>
      <point x="260" y="1390" type="curve" smooth="yes"/>
      <point x="160" y="1390"/>
      <point x="80" y="1318"/>
      <point x="80" y="1220" type="curve"/>
      <point x="140" y="1220" type="line"/>
      <point x="140" y="1286"/>
      <point x="194" y="1330"/>
      <point x="260" y="1330" type="curve" smooth="yes"/>
      <point x="326" y="1330"/>
      <point x="378" y="1286"/>
      <point x="378" y="1220" type="curve" smooth="yes"/>
      <point x="378" y="1124"/>
      <point x="162" y="964"/>
      <point x="80" y="910" type="curve"/>
    </contour>
  </outline>
</glyph>
<glyph name="zero.dnom" format="2">
  <advance width="540"/>
  <outline>
    <contour>
      <point x="270" y="-26" type="curve"/>
      <point x="386" y="-26"/>
      <point x="480" y="92"/>
      <point x="480" y="252" type="curve"/>
      <point x="480" y="412"/>
      <point x="386" y="532"/>
      <point x="270" y="532" type="curve"/>
      <point x="154" y="532"/>
      <point x="60" y="412"/>
      <point x="60" y="252" type="curve"/>
      <point x="60" y="92"/>
      <point x="154" y="-26"/>
    </contour>
    <contour>
      <point x="270" y="34" type="curve"/>
      <point x="182" y="34"/>
      <point x="120" y="140"/>
      <point x="120" y="252" type="curve"/>
      <point x="120" y="360"/>
      <point x="178" y="472"/>
      <point x="270" y="472" type="curve"/>
      <point x="358" y="472"/>
      <point x="420" y="366"/>
      <point x="420" y="252" type="curve"/>
      <point x="420" y="146"/>
      <point x="362" y="34"/>
    </contour>
  </outline>
</glyph>
<glyph name="zero.numr" format="2">
  <advance width="540"/>
  <outline>
    <contour>
      <point x="270" y="832" type="curve" smooth="yes"/>
      <point x="386" y="832"/>
      <point x="480" y="950"/>
      <point x="480" y="1110" type="curve" smooth="yes"/>
      <point x="480" y="1270"/>
      <point x="386" y="1390"/>
      <point x="270" y="1390" type="curve" smooth="yes"/>
      <point x="154" y="1390"/>
      <point x="60" y="1270"/>
      <point x="60" y="1110" type="curve" smooth="yes"/>
      <point x="60" y="950"/>
      <point x="154" y="832"/>
    </contour>
    <contour>
      <point x="270" y="892" type="curve" smooth="yes"/>
      <point x="182" y="892"/>
      <point x="120" y="998"/>
      <point x="120" y="1110" type="curve" smooth="yes"/>
      <point x="120" y="1218"/>
      <point x="178" y="1330"/>
      <point x="270" y="1330" type="curve" smooth="yes"/>
      <point x="358" y="1330"/>
      <point x="420" y="1224"/>
      <point x="420" y="1110" type="curve" smooth="yes"/>
      <point x="420" y="1004"/>
      <point x="362" y="892"/>
    </contour>
  </outline>
</glyph>
